<svg width="28" height="28" viewBox="0 0 28 28" fill="none" xmlns="http://www.w3.org/2000/svg">
<g id="Basic / Kebab_Horizontal">
<path id="Vector" d="M19.8335 14C19.8335 13.3557 20.3558 12.8333 21.0002 12.8333C21.6445 12.8333 22.1668 13.3557 22.1668 14C22.1668 14.6443 21.6445 15.1667 21.0002 15.1667C20.3558 15.1667 19.8335 14.6443 19.8335 14Z" fill="currentColor" stroke="currentColor" stroke-width="2" stroke-linecap="round" stroke-linejoin="round"/>
<path id="Vector_2" d="M12.8335 14C12.8335 13.3557 13.3558 12.8333 14.0002 12.8333C14.6445 12.8333 15.1668 13.3557 15.1668 14C15.1668 14.6443 14.6445 15.1667 14.0002 15.1667C13.3558 15.1667 12.8335 14.6443 12.8335 14Z" fill="currentColor" stroke="currentColor" stroke-width="2" stroke-linecap="round" stroke-linejoin="round"/>
<path id="Vector_3" d="M5.8335 14C5.8335 13.3557 6.35583 12.8333 7.00016 12.8333C7.6445 12.8333 8.16683 13.3557 8.16683 14C8.16683 14.6443 7.6445 15.1667 7.00016 15.1667C6.35583 15.1667 5.8335 14.6443 5.8335 14Z" fill="currentColor" stroke="currentColor" stroke-width="2" stroke-linecap="round" stroke-linejoin="round"/>
</g>
</svg>
