<svg width="16" height="16" viewBox="0 0 16 16" fill="none" xmlns="http://www.w3.org/2000/svg">
<path fill-rule="evenodd" clip-rule="evenodd" d="M10.5578 6.28831C10.7922 6.05399 10.7922 5.67409 10.5579 5.43978C10.3235 5.20546 9.94364 5.20546 9.70932 5.43977L7.99863 7.15044L6.28793 5.43977C6.05362 5.20546 5.67372 5.20546 5.4394 5.43978C5.20509 5.67409 5.20509 6.05399 5.43941 6.28831L7.15009 7.99896L5.43941 9.70961C5.20509 9.94392 5.20509 10.3238 5.4394 10.5581C5.67372 10.7925 6.05362 10.7925 6.28793 10.5581L7.99863 8.84748L9.70932 10.5581C9.94364 10.7925 10.3235 10.7925 10.5579 10.5581C10.7922 10.3238 10.7922 9.94392 10.5578 9.70961L8.84716 7.99896L10.5578 6.28831Z" fill="#DF2929"/>
<path d="M15.4 8C15.4 12.0869 12.0869 15.4 8 15.4C3.91309 15.4 0.6 12.0869 0.6 8C0.6 3.91309 3.91309 0.6 8 0.6C12.0869 0.6 15.4 3.91309 15.4 8Z" stroke="#DF2929" stroke-width="1.2" stroke-miterlimit="10" stroke-linecap="round" stroke-linejoin="round"/>
</svg>
