<svg width="24" height="24" viewBox="0 0 24 24" fill="none" xmlns="http://www.w3.org/2000/svg">
<g id="Frame" clip-path="url(#clip0_154_13376)">
<path id="Vector" fill-rule="evenodd" clip-rule="evenodd" d="M23.52 12.2722C23.52 11.4213 23.4436 10.6031 23.3019 9.81769H12V14.4594H18.4581C18.18 15.9594 17.3345 17.2304 16.0636 18.0813V21.0922H19.9419C22.2109 19.0032 23.52 15.9268 23.52 12.2722Z" fill="#4285F4"/>
<path id="Vector_2" fill-rule="evenodd" clip-rule="evenodd" d="M11.9997 24C15.2397 24 17.956 22.9254 19.9415 21.0926L16.0633 18.0817C14.9888 18.8017 13.6143 19.2272 11.9997 19.2272C8.87423 19.2272 6.22878 17.1162 5.28514 14.28H1.27605V17.389C3.25059 21.3108 7.30878 24 11.9997 24Z" fill="#34A853"/>
<path id="Vector_3" fill-rule="evenodd" clip-rule="evenodd" d="M5.28545 14.2797C5.04545 13.5597 4.90909 12.7907 4.90909 11.9997C4.90909 11.2088 5.04545 10.4397 5.28545 9.71975V6.61066H1.27636C0.463636 8.23066 0 10.0634 0 11.9997C0 13.9361 0.463636 15.7688 1.27636 17.3888L5.28545 14.2797Z" fill="#FBBC05"/>
<path id="Vector_4" fill-rule="evenodd" clip-rule="evenodd" d="M11.9997 4.77273C13.7615 4.77273 15.3433 5.37819 16.5869 6.56727L20.0288 3.12545C17.9505 1.18909 15.2343 0 11.9997 0C7.30878 0 3.25059 2.68909 1.27605 6.61091L5.28514 9.72C6.22878 6.88364 8.87423 4.77273 11.9997 4.77273Z" fill="#EA4335"/>
</g>
<defs>
<clipPath id="clip0_154_13376">
<rect width="24" height="24" fill="white"/>
</clipPath>
</defs>
</svg>
