<svg xmlns="http://www.w3.org/2000/svg" width="28" height="28" viewBox="0 0 28 28" fill="none">
<path fill-rule="evenodd" clip-rule="evenodd" d="M15.8167 14.167L22.699 7.28476C23.1551 6.82859 23.1551 6.09126 22.699 5.63509C22.2428 5.17893 21.5055 5.17893 21.0493 5.63509L14.167 12.5174L7.28476 5.63509C6.82859 5.17893 6.09126 5.17893 5.63509 5.63509C5.17893 6.09126 5.17893 6.82859 5.63509 7.28476L12.5174 14.167L5.63509 21.0493C5.17893 21.5055 5.17893 22.2428 5.63509 22.699C5.86259 22.9265 6.16126 23.0408 6.45993 23.0408C6.75859 23.0408 7.05726 22.9265 7.28476 22.699L14.167 15.8167L21.0493 22.699C21.2768 22.9265 21.5755 23.0408 21.8741 23.0408C22.1728 23.0408 22.4715 22.9265 22.699 22.699C23.1551 22.2428 23.1551 21.5055 22.699 21.0493L15.8167 14.167Z" fill="white"/>
</svg>