<svg xmlns="http://www.w3.org/2000/svg" width="28" height="28" viewBox="0 0 28 28" fill="none">
<path fill-rule="evenodd" clip-rule="evenodd" d="M24.4997 19.8333C25.144 19.8333 25.6664 20.3556 25.6664 20.9999C25.6664 21.6443 25.144 22.1666 24.4997 22.1666H3.49971C2.85538 22.1666 2.33305 21.6443 2.33305 20.9999C2.33305 20.3556 2.85538 19.8333 3.49971 19.8333H24.4997ZM24.4997 12.8333C25.144 12.8333 25.6664 13.3556 25.6664 13.9999C25.6664 14.6443 25.144 15.1666 24.4997 15.1666H3.49971C2.85538 15.1666 2.33305 14.6443 2.33305 13.9999C2.33305 13.3556 2.85538 12.8333 3.49971 12.8333H24.4997ZM24.4997 5.83334C25.144 5.83334 25.6663 6.35568 25.6663 7.00001C25.6663 7.64434 25.144 8.16668 24.4997 8.16668H3.49967C2.85534 8.16668 2.33301 7.64434 2.33301 7.00001C2.33301 6.35568 2.85534 5.83334 3.49967 5.83334H24.4997Z" fill="white"/>
</svg>