<svg width="73" height="13" viewBox="0 0 73 13" fill="none" xmlns="http://www.w3.org/2000/svg">
<path opacity="0.5" fill-rule="evenodd" clip-rule="evenodd" d="M0 0.339722V9.94404L8.08763 9.94411V8.35825H1.5987V5.89682H7.32501V4.38685H1.5987V1.92559H8.08763V0.339722H0ZM56.8052 0.339722H58.3898V9.98518H56.8052V9.03441C56.5021 9.35133 56.1301 9.61314 55.7167 9.80605C55.262 10.0127 54.7521 10.123 54.2285 10.1367C53.7187 10.1505 53.1951 10.0679 52.7128 9.87494C52.2305 9.69581 51.8034 9.42023 51.4451 9.07575C50.7424 8.40057 50.3428 7.46358 50.3566 6.54037C50.3428 5.61716 50.7424 4.68018 51.4451 4.00499C51.8034 3.67429 52.2305 3.39871 52.7128 3.2058C53.1951 3.02667 53.7187 2.94399 54.2285 2.94399C54.7521 2.95777 55.262 3.06801 55.7167 3.2747C56.1301 3.46761 56.5021 3.74319 56.8052 4.04633V0.339722ZM55.9647 8.16632C56.4745 7.7805 56.8052 7.17422 56.8052 6.54037C56.8052 5.90653 56.4745 5.30024 55.9647 4.9282C55.7167 4.73529 55.4273 4.58372 55.1379 4.50105C54.8348 4.41837 54.5317 4.37703 54.2285 4.39081C53.6222 4.41837 53.0435 4.63884 52.6163 5.03844C52.1892 5.42426 51.9412 5.97542 51.9412 6.54037C51.9412 7.10532 52.1892 7.65649 52.6163 8.04231C53.0435 8.44191 53.6222 8.66237 54.2285 8.68993C54.5317 8.70371 54.8348 8.66237 55.1379 8.5797C55.4273 8.49702 55.7167 8.35923 55.9647 8.16632ZM61.1874 7.13294H66.9333H67.2089C67.2502 6.94003 67.264 6.74712 67.264 6.54043C67.264 4.55622 65.5278 2.94406 63.3783 2.94406C61.2425 2.94406 59.5063 4.55622 59.5063 6.54043C59.5063 8.52464 61.3665 10.1368 63.6401 10.1368C65.0593 10.1368 66.3408 9.51675 67.0987 8.52464L65.6243 7.90458C65.1558 8.38685 64.4255 8.68999 63.6401 8.68999C62.4826 8.68999 61.5043 8.02859 61.1874 7.13294ZM65.583 5.94793H61.1874C61.463 5.05228 62.3448 4.39087 63.3783 4.39087C64.4255 4.39087 65.3074 5.05228 65.583 5.94793ZM70.1797 3.09582C69.1968 3.09582 68.3999 3.89267 68.3999 4.87563V9.98046H69.9911V4.87563C69.9911 4.77145 70.0756 4.68699 70.1797 4.68699H73V3.09582H70.1797ZM47.7641 9.98521H49.3487V6.23726V5.98924C49.3487 5.94107 49.3453 5.89634 49.3419 5.85162L49.3418 5.85145L49.3418 5.85127C49.3384 5.80655 49.335 5.76182 49.335 5.71365C49.3212 5.53452 49.2936 5.34161 49.2523 5.14871C49.1558 4.76289 49.018 4.39085 48.7562 4.03259C48.6322 3.85346 48.4806 3.68811 48.3015 3.53654C48.1224 3.38496 47.9295 3.24717 47.709 3.15072C47.4885 3.05426 47.2543 2.97159 47.02 2.93025C46.7858 2.90269 46.5516 2.88891 46.3311 2.88891C45.8764 2.91647 45.4079 3.04048 45.0083 3.27473C44.7189 3.44008 44.4847 3.67433 44.3055 3.92235V3.0956H42.7209V9.98521H44.3055V6.49907C44.3055 6.41639 44.3193 6.31994 44.3331 6.23726C44.3469 5.93412 44.4158 5.64476 44.526 5.38295C44.65 5.12115 44.8154 4.87312 45.0083 4.70777C45.215 4.54242 45.4354 4.43219 45.6559 4.37707C45.8764 4.32195 46.0831 4.30817 46.3311 4.33573C46.5653 4.34951 46.7582 4.40463 46.9236 4.50108C47.1027 4.58376 47.2543 4.70777 47.3783 4.87312C47.5023 5.02469 47.6125 5.24516 47.6814 5.46563C47.6851 5.48229 47.6888 5.4987 47.6925 5.51497C47.7162 5.61976 47.7384 5.71839 47.7503 5.83767C47.7503 5.86522 47.7538 5.89623 47.7572 5.92723C47.7607 5.95823 47.7641 5.98924 47.7641 6.0168V6.23726V9.98521ZM39.6751 3.09563H41.2598V9.98524H39.6751V9.03447C39.372 9.35139 39 9.6132 38.5866 9.80611C38.1319 10.0128 37.622 10.123 37.0984 10.1368C36.5886 10.1506 36.065 10.0541 35.5827 9.875C35.1004 9.69587 34.6733 9.42029 34.315 9.07581C33.6123 8.40063 33.2127 7.46364 33.2265 6.54043C33.2127 5.61723 33.6123 4.68024 34.315 4.00506C34.6733 3.67435 35.1004 3.39877 35.5827 3.20586C36.065 3.02673 36.5886 2.94406 37.0984 2.94406C37.622 2.95784 38.1319 3.06807 38.5866 3.27476C39 3.46767 39.372 3.74325 39.6751 4.04639V3.09563ZM38.8346 8.16638C39.3444 7.78056 39.6751 7.17428 39.6751 6.54043C39.6751 5.90659 39.3444 5.3003 38.8346 4.92826C38.5866 4.73536 38.2972 4.58378 38.0079 4.50111C37.7047 4.41843 37.4016 4.3771 37.0984 4.39087C36.4921 4.41843 35.9134 4.6389 35.4863 5.0385C35.0591 5.42432 34.8111 5.97548 34.8111 6.54043C34.8111 7.10538 35.0591 7.65655 35.4863 8.04237C35.9134 8.44197 36.4921 8.66243 37.0984 8.68999C37.4016 8.70377 37.7047 8.66243 38.0079 8.57976C38.2972 8.49708 38.5866 8.35929 38.8346 8.16638ZM32.4405 6.54043C32.4542 5.61723 32.0546 4.68024 31.3519 4.00506C30.9936 3.67435 30.5665 3.39877 30.0842 3.20586C29.6019 3.02673 29.0783 2.94406 28.5685 2.94406C28.0449 2.95784 27.5351 3.06807 27.0803 3.27476C26.667 3.46767 26.2949 3.74325 25.9918 4.04639V3.09563H24.4072V12.7411H25.9918V9.03447C26.2949 9.35139 26.667 9.6132 27.0803 9.80611C27.5351 10.0128 28.0449 10.123 28.5685 10.1368C29.0783 10.1506 29.6019 10.0541 30.0842 9.875C30.5665 9.69587 30.9936 9.42029 31.3519 9.07581C32.0546 8.40063 32.4542 7.46364 32.4405 6.54043ZM30.8558 6.54043C30.8558 7.10538 30.6078 7.65655 30.1807 8.04237C29.7535 8.44197 29.1748 8.66243 28.5685 8.68999C28.2654 8.70377 27.9622 8.66243 27.6591 8.57976C27.3697 8.49708 27.0803 8.35929 26.8323 8.16638C26.3225 7.78056 25.9918 7.17428 25.9918 6.54043C25.9918 5.90659 26.3225 5.3003 26.8185 4.92826C27.0803 4.73536 27.3697 4.58378 27.6591 4.50111C27.9622 4.41843 28.2654 4.3771 28.5685 4.39087C29.1748 4.41843 29.7535 4.6389 30.1807 5.0385C30.6078 5.42432 30.8558 5.97548 30.8558 6.54043ZM17.3249 6.15743L17.3265 6.15892C17.6807 5.76076 18.0106 5.40908 18.3506 5.11709C18.8965 4.64816 19.3637 4.4294 19.8462 4.4294C20.8786 4.4294 21.7718 5.31233 21.7718 6.47239C21.7718 7.63245 20.8786 8.51538 19.8462 8.51538C19.3938 8.51538 18.9181 8.26926 18.3371 7.7494C18.0539 7.49601 17.7721 7.20221 17.4747 6.88286C17.4493 6.85565 17.4238 6.82818 17.3981 6.8005L16.3513 7.98455C16.6446 8.29886 16.9583 8.62636 17.2883 8.9216C17.9544 9.51753 18.8009 10.0883 19.8462 10.0883C21.8095 10.0883 23.3447 8.43764 23.3447 6.47239C23.3447 4.50714 21.8095 2.85651 19.8462 2.85651C18.831 2.85651 18.0099 3.33623 17.3257 3.9239C17.0002 4.20353 16.6819 4.52944 16.3712 4.86923L16.3738 4.87151L14.9269 6.50818L14.9264 6.50871C14.8214 6.62845 14.7191 6.74463 14.6186 6.85694L14.5475 6.93735L14.5468 6.93676C14.243 7.27326 13.9543 7.57316 13.658 7.82769C13.112 8.29661 12.6449 8.51538 12.1623 8.51538C11.1299 8.51538 10.2367 7.63244 10.2367 6.47239C10.2367 5.31233 11.1299 4.4294 12.1623 4.4294C12.6148 4.4294 13.0904 4.67552 13.6714 5.19538C13.9546 5.44876 14.2364 5.74257 14.5339 6.06191C14.5614 6.09149 14.5892 6.12138 14.6171 6.1515L15.6639 4.96743C15.3687 4.65093 15.0527 4.32068 14.7202 4.02318C14.0541 3.42724 13.2076 2.8565 12.1623 2.8565C10.199 2.8565 8.66381 4.50713 8.66381 6.47239C8.66381 8.43764 10.199 10.0883 12.1623 10.0883C13.1775 10.0883 13.9986 9.60855 14.6828 9.02088C14.9605 8.78235 15.2329 8.51015 15.4998 8.22439L15.4986 8.22326L17.3249 6.15743Z" fill="white"/>
</svg>
