<svg width="24" height="24" viewBox="0 0 24 24" fill="none" xmlns="http://www.w3.org/2000/svg">
<g>
<path d="M19.3253 9.4682C19.3253 9.4682 18.7823 16.2032 18.4673 19.0402C18.3173 20.3952 17.4803 21.1892 16.1093 21.2142C13.5003 21.2612 10.8883 21.2642 8.28028 21.2092C6.96128 21.1822 6.13828 20.3782 5.99128 19.0472C5.67428 16.1852 5.13428 9.4682 5.13428 9.4682" stroke="currentColor" stroke-width="1.5" stroke-linecap="round" stroke-linejoin="round"/>
<path d="M14.8164 9.47287L14.0879 18.2268" stroke="currentColor" stroke-width="1.5" stroke-linecap="round"/>
<path d="M9.49805 9.47287L10.2266 18.2268" stroke="currentColor" stroke-width="1.5" stroke-linecap="round"/>
<path d="M20.709 6.2397H3.75098" stroke="currentColor" stroke-width="1.5" stroke-linecap="round" stroke-linejoin="round"/>
<path d="M17.4416 6.2397C16.6566 6.2397 15.9806 5.6847 15.8266 4.9157L15.5836 3.6997C15.4336 3.1387 14.9256 2.7507 14.3466 2.7507H10.1136C9.53455 2.7507 9.02655 3.1387 8.87655 3.6997L8.63355 4.9157C8.47955 5.6847 7.80355 6.2397 7.01855 6.2397" stroke="currentColor" stroke-width="1.5" stroke-linecap="round" stroke-linejoin="round"/>
</g>
</svg>
