<svg width="54" height="54" viewBox="0 0 54 54" fill="none" xmlns="http://www.w3.org/2000/svg">
<path d="M27 15.75C26.4033 15.75 25.831 15.9871 25.409 16.409C24.9871 16.831 24.75 17.4033 24.75 18V27C24.75 27.5967 24.9871 28.169 25.409 28.591C25.831 29.0129 26.4033 29.25 27 29.25C27.5968 29.25 28.169 29.0129 28.591 28.591C29.013 28.169 29.25 27.5967 29.25 27V18C29.25 17.4033 29.013 16.831 28.591 16.409C28.169 15.9871 27.5968 15.75 27 15.75ZM29.07 35.145C29.0208 35.0016 28.9527 34.8654 28.8675 34.74L28.5975 34.4025C28.2811 34.0903 27.8793 33.8788 27.4428 33.7947C27.0064 33.7106 26.5548 33.7577 26.145 33.93C25.8723 34.0439 25.6212 34.2038 25.4025 34.4025C25.194 34.6127 25.029 34.8621 24.917 35.1362C24.8051 35.4103 24.7483 35.7039 24.75 36C24.7536 36.294 24.8147 36.5845 24.93 36.855C25.0311 37.1342 25.1923 37.3878 25.4023 37.5978C25.6122 37.8077 25.8658 37.9689 26.145 38.07C26.4143 38.189 26.7056 38.2505 27 38.2505C27.2945 38.2505 27.5857 38.189 27.855 38.07C28.1342 37.9689 28.3878 37.8077 28.5978 37.5978C28.8077 37.3878 28.969 37.1342 29.07 36.855C29.1853 36.5845 29.2465 36.294 29.25 36C29.2611 35.8502 29.2611 35.6998 29.25 35.55C29.2113 35.4065 29.1506 35.2699 29.07 35.145ZM27 4.5C22.5499 4.5 18.1998 5.8196 14.4997 8.29193C10.7996 10.7643 7.91569 14.2783 6.21272 18.3896C4.50975 22.501 4.06417 27.025 4.93234 31.3895C5.80051 35.7541 7.94343 39.7632 11.0901 42.9099C14.2368 46.0566 18.2459 48.1995 22.6105 49.0677C26.9751 49.9358 31.4991 49.4903 35.6104 47.7873C39.7217 46.0843 43.2357 43.2004 45.7081 39.5003C48.1804 35.8002 49.5 31.4501 49.5 27C49.5 24.0453 48.918 21.1194 47.7873 18.3896C46.6566 15.6598 44.9992 13.1794 42.9099 11.0901C40.8206 9.00078 38.3402 7.34344 35.6104 6.21271C32.8806 5.08198 29.9548 4.5 27 4.5ZM27 45C23.4399 45 19.9598 43.9443 16.9997 41.9665C14.0397 39.9886 11.7326 37.1774 10.3702 33.8883C9.0078 30.5992 8.65134 26.98 9.34588 23.4884C10.0404 19.9967 11.7547 16.7894 14.2721 14.2721C16.7894 11.7547 19.9967 10.0404 23.4884 9.34587C26.98 8.65133 30.5992 9.00779 33.8883 10.3702C37.1774 11.7325 39.9886 14.0397 41.9665 16.9997C43.9443 19.9598 45 23.4399 45 27C45 31.7739 43.1036 36.3523 39.7279 39.7279C36.3523 43.1036 31.7739 45 27 45Z" fill="currentColor"/>
</svg>
