<svg width="28" height="28" viewBox="0 0 28 28" fill="none" xmlns="http://www.w3.org/2000/svg">
<path d="M22.5215 6.20533C25.2884 10.2932 26.6549 14.9041 26.1441 20.2124C26.142 20.2348 26.1303 20.2555 26.112 20.269C24.0166 21.815 21.9865 22.7533 19.9848 23.3755C19.9692 23.3802 19.9525 23.38 19.9371 23.3747C19.9217 23.3695 19.9083 23.3595 19.8988 23.3462C19.4363 22.6997 19.0161 22.0181 18.648 21.3023C18.6269 21.2602 18.6462 21.2094 18.6897 21.1928C19.357 20.9401 19.9916 20.6373 20.6019 20.2788C20.65 20.2505 20.653 20.1813 20.6086 20.1481C20.4791 20.0514 20.3508 19.9499 20.228 19.8483C20.205 19.8296 20.1741 19.8259 20.148 19.8385C16.1855 21.6771 11.8447 21.6771 7.83528 19.8385C7.80924 19.8268 7.77831 19.8308 7.75596 19.8493C7.63346 19.9508 7.50483 20.0514 7.37651 20.1481C7.33211 20.1813 7.33578 20.2505 7.38417 20.2788C7.99453 20.6306 8.62907 20.9401 9.29547 21.194C9.33865 21.2106 9.35917 21.2602 9.33774 21.3023C8.97759 22.019 8.55741 22.7006 8.0864 23.3472C8.06588 23.3733 8.03219 23.3853 8.00034 23.3755C6.00819 22.7533 3.97806 21.815 1.8827 20.269C1.86524 20.2555 1.85269 20.2339 1.85085 20.2114C1.42394 15.6199 2.29399 10.9708 5.47011 6.20441C5.47777 6.19179 5.4894 6.18194 5.50288 6.1761C7.06567 5.4554 8.73994 4.92519 10.4898 4.62239C10.5217 4.61747 10.5535 4.63224 10.5701 4.66055C10.7863 5.04521 11.0334 5.53849 11.2007 5.94161C13.0452 5.6585 14.9185 5.6585 16.8017 5.94161C16.9689 5.54711 17.2074 5.04521 17.4227 4.66055C17.4304 4.6465 17.4423 4.63525 17.4567 4.6284C17.4711 4.62155 17.4873 4.61944 17.503 4.62239C19.2538 4.92612 20.9281 5.45633 22.4896 6.1761C22.5034 6.18194 22.5147 6.19179 22.5215 6.20533ZM12.1384 14.9355C12.1577 13.5781 11.1728 12.4549 9.93645 12.4549C8.71023 12.4549 7.73483 13.5683 7.73483 14.9355C7.73483 16.3024 8.72952 17.4158 9.93645 17.4158C11.163 17.4158 12.1384 16.3024 12.1384 14.9355ZM20.2791 14.9355C20.2984 13.5781 19.3135 12.4549 18.0775 12.4549C16.851 12.4549 15.8756 13.5683 15.8756 14.9355C15.8756 16.3024 16.8703 17.4158 18.0775 17.4158C19.3135 17.4158 20.2791 16.3024 20.2791 14.9355Z" fill="black"/>
</svg>
