<svg width="140" height="44" viewBox="0 0 140 44" fill="none" xmlns="http://www.w3.org/2000/svg">
<rect width="140" height="44" rx="22" fill="white"/>
<rect x="0.5" y="0.5" width="139" height="43" rx="21.5" stroke="black" stroke-opacity="0.3"/>
<path fill-rule="evenodd" clip-rule="evenodd" d="M25 12C19.477 12 15 16.463 15 21.97C15 26.374 17.865 30.11 21.839 31.428C22.339 31.52 22.521 31.212 22.521 30.948C22.521 30.712 22.513 30.084 22.508 29.253C19.726 29.855 19.139 27.916 19.139 27.916C18.685 26.765 18.029 26.458 18.029 26.458C17.121 25.84 18.098 25.852 18.098 25.852C19.101 25.922 19.629 26.879 19.629 26.879C20.521 28.403 21.97 27.963 22.539 27.707C22.631 27.064 22.889 26.624 23.175 26.375C20.955 26.124 18.62 25.268 18.62 21.448C18.62 20.36 19.01 19.469 19.649 18.773C19.546 18.521 19.203 17.507 19.747 16.135C19.747 16.135 20.587 15.867 22.497 17.157C23.3129 16.935 24.1545 16.8217 25 16.82C25.85 16.824 26.705 16.934 27.504 17.156C29.413 15.866 30.251 16.134 30.251 16.134C30.797 17.506 30.453 18.52 30.351 18.772C30.991 19.468 31.379 20.359 31.379 21.447C31.379 25.277 29.04 26.12 26.813 26.367C27.172 26.674 27.491 27.282 27.491 28.213C27.491 29.545 27.479 30.62 27.479 30.947C27.479 31.214 27.659 31.524 28.167 31.427C32.137 30.107 35 26.373 35 21.969C35 16.463 30.522 12 25 12Z" fill="black"/>
<path d="M50.0833 15.328C52.6933 15.328 54.9433 16.642 55.8973 19.09H53.4313C52.7653 17.83 51.5773 17.2 50.0833 17.2C47.5993 17.2 45.7993 18.964 45.7993 21.718C45.7993 24.472 47.5993 26.254 50.0833 26.254C52.3513 26.254 53.7733 24.886 54.0793 22.78H49.3813V21.142H56.2753V22.744C55.8973 25.642 53.4493 28.108 50.0833 28.108C46.5553 28.108 43.6933 25.48 43.6933 21.718C43.6933 17.974 46.5553 15.328 50.0833 15.328ZM58.2992 28V18.082H60.3512V28H58.2992ZM59.3432 16.768C58.6052 16.768 58.0292 16.192 58.0292 15.454C58.0292 14.716 58.6052 14.14 59.3432 14.14C60.0632 14.14 60.6392 14.716 60.6392 15.454C60.6392 16.192 60.0632 16.768 59.3432 16.768ZM63.3693 25.246V19.756H62.1993V18.082H63.3693V15.616H65.4393V18.082H67.8513V19.756H65.4393V25.246C65.4393 25.984 65.7273 26.29 66.5913 26.29H67.8513V28H66.2313C64.4673 28 63.3693 27.262 63.3693 25.246ZM77.6806 28V22.528H71.7946V28H69.7426V15.49H71.7946V20.854H77.6806V15.49H79.7326V28H77.6806ZM91.416 18.082V28H89.364V26.812C88.716 27.658 87.6 28.144 86.43 28.144C84.108 28.144 82.344 26.686 82.344 23.914V18.082H84.378V23.608C84.378 25.426 85.368 26.362 86.862 26.362C88.374 26.362 89.364 25.426 89.364 23.608V18.082H91.416ZM96.1754 19.558C96.8234 18.658 98.0654 17.92 99.6314 17.92C102.259 17.92 104.293 19.936 104.293 22.996C104.293 26.056 102.241 28.162 99.6314 28.162C97.9934 28.162 96.8234 27.424 96.1754 26.56V28H94.1234V14.68H96.1754V19.558ZM102.205 22.996C102.205 20.854 100.729 19.702 99.1814 19.702C97.6514 19.702 96.1754 20.908 96.1754 23.032C96.1754 25.174 97.6514 26.38 99.1814 26.38C100.729 26.38 102.205 25.138 102.205 22.996Z" fill="black"/>
<path fill-rule="evenodd" clip-rule="evenodd" d="M120.864 18.1363C121.157 18.4292 121.157 18.9041 120.864 19.197L114.197 25.8637C113.904 26.1565 113.429 26.1565 113.136 25.8637C112.843 25.5708 112.843 25.0959 113.136 24.803L119.803 18.1363C120.096 17.8434 120.571 17.8434 120.864 18.1363Z" fill="black"/>
<path fill-rule="evenodd" clip-rule="evenodd" d="M114.583 18.6667C114.583 18.2524 114.919 17.9167 115.333 17.9167H120.333C120.748 17.9167 121.083 18.2524 121.083 18.6667V23.6667C121.083 24.0809 120.748 24.4167 120.333 24.4167C119.919 24.4167 119.583 24.0809 119.583 23.6667V19.4167H115.333C114.919 19.4167 114.583 19.0809 114.583 18.6667Z" fill="black"/>
</svg>
