<svg width="28" height="28" viewBox="0 0 28 28" fill="none" xmlns="http://www.w3.org/2000/svg">
<path fill-rule="evenodd" clip-rule="evenodd" d="M24.5 19.8333C25.1443 19.8333 25.6667 20.3556 25.6667 20.9999C25.6667 21.6443 25.1443 22.1666 24.5 22.1666H3.50001C2.85568 22.1666 2.33334 21.6443 2.33334 20.9999C2.33334 20.3556 2.85568 19.8333 3.50001 19.8333H24.5ZM24.5 12.8333C25.1443 12.8333 25.6667 13.3556 25.6667 13.9999C25.6667 14.6443 25.1443 15.1666 24.5 15.1666H3.50001C2.85568 15.1666 2.33334 14.6443 2.33334 13.9999C2.33334 13.3556 2.85568 12.8333 3.50001 12.8333H24.5ZM24.5 5.83331C25.1443 5.83331 25.6666 6.35565 25.6666 6.99998C25.6666 7.64431 25.1443 8.16665 24.5 8.16665H3.49996C2.85563 8.16665 2.3333 7.64431 2.3333 6.99998C2.3333 6.35565 2.85563 5.83331 3.49996 5.83331H24.5Z" fill="#2B332D"/>
</svg>
