<svg width="20" height="20" viewBox="0 0 20 20" fill="none" xmlns="http://www.w3.org/2000/svg">
<path fill-rule="evenodd" clip-rule="evenodd" d="M13.8637 6.13636C14.1566 6.42925 14.1566 6.90412 13.8637 7.19702L7.197 13.8637C6.90411 14.1566 6.42923 14.1566 6.13634 13.8637C5.84345 13.5708 5.84345 13.0959 6.13634 12.803L12.803 6.13636C13.0959 5.84346 13.5708 5.84346 13.8637 6.13636Z" fill="black"/>
<path fill-rule="evenodd" clip-rule="evenodd" d="M7.58333 6.66669C7.58333 6.25247 7.91911 5.91669 8.33333 5.91669H13.3333C13.7475 5.91669 14.0833 6.25247 14.0833 6.66669V11.6667C14.0833 12.0809 13.7475 12.4167 13.3333 12.4167C12.9191 12.4167 12.5833 12.0809 12.5833 11.6667V7.41669H8.33333C7.91911 7.41669 7.58333 7.0809 7.58333 6.66669Z" fill="black"/>
</svg>
