<svg width="18" height="18" viewBox="0 0 18 18" fill="none" xmlns="http://www.w3.org/2000/svg">
<path fill-rule="evenodd" clip-rule="evenodd" d="M9.61714 2.78037C9.57591 2.48085 9.31536 2.25 9.00009 2.25C8.65616 2.25 8.37735 2.52473 8.37735 2.86364V13.65L4.43899 9.75352L4.36927 9.69396C4.12586 9.51522 3.77985 9.53432 3.55831 9.75172C3.31461 9.99087 3.31379 10.3794 3.55649 10.6195L8.5505 15.561C8.57825 15.5895 8.60877 15.6154 8.64163 15.6382C8.88503 15.8077 9.2242 15.7848 9.44171 15.5695L14.4436 10.6195L14.5037 10.5505C14.6841 10.3099 14.6632 9.96907 14.4417 9.75169C14.1979 9.51256 13.8036 9.5134 13.561 9.75356L9.62283 13.6509V2.86364L9.61714 2.78037Z" fill="#130F26"/>
</svg>
