<svg width="18" height="18" viewBox="0 0 18 18" fill="none" xmlns="http://www.w3.org/2000/svg">
<path fill-rule="evenodd" clip-rule="evenodd" d="M9.61714 15.2196C9.57591 15.5191 9.31536 15.75 9.00009 15.75C8.65616 15.75 8.37735 15.4753 8.37735 15.1364V4.35004L4.43899 8.24648L4.36927 8.30604C4.12586 8.48478 3.77985 8.46568 3.55831 8.24828C3.31461 8.00913 3.31379 7.6206 3.55649 7.38047L8.5505 2.43904C8.57825 2.41051 8.60877 2.38462 8.64163 2.36179C8.88503 2.19234 9.2242 2.21525 9.44171 2.4305L14.4436 7.3805L14.5037 7.44945C14.6841 7.69007 14.6632 8.03093 14.4417 8.24831C14.1979 8.48744 13.8036 8.4866 13.561 8.24644L9.62283 4.34909V15.1364L9.61714 15.2196Z" fill="#130F26"/>
</svg>
