<svg width="24" height="24" viewBox="0 0 24 24" fill="none" xmlns="http://www.w3.org/2000/svg">
<g opacity="0.5">
<path d="M4 6.26141C4 5.81988 4 5.59911 4.08719 5.43046C4.16389 5.28212 4.28628 5.16151 4.43681 5.08593C4.60794 5 4.83196 5 5.28 5H18.72C19.168 5 19.3921 5 19.5632 5.08593C19.7137 5.16151 19.8361 5.28212 19.9128 5.43046C20 5.59911 20 5.81988 20 6.26141V6.78915C20 7.00106 20 7.10702 19.9737 7.20555C19.9504 7.29286 19.9121 7.37558 19.8604 7.4501C19.8021 7.5342 19.7208 7.60359 19.5583 7.74238L14.4417 12.1124C14.2792 12.2512 14.1979 12.3206 14.1396 12.4047C14.0879 12.4792 14.0496 12.5619 14.0263 12.6492C14 12.7478 14 12.8537 14 13.0656V17.1871C14 17.3413 14 17.4184 13.9748 17.485C13.9525 17.5439 13.9162 17.5967 13.869 17.639C13.8156 17.6868 13.7429 17.7154 13.5977 17.7727L10.8777 18.8449C10.5837 18.9608 10.4366 19.0188 10.3186 18.9946C10.2154 18.9735 10.1248 18.913 10.0666 18.8264C10 18.7274 10 18.5714 10 18.2593V13.0656C10 12.8537 10 12.7478 9.97372 12.6492C9.95044 12.5619 9.91211 12.4792 9.86041 12.4047C9.80206 12.3206 9.72081 12.2512 9.55831 12.1124L4.44169 7.74238C4.27919 7.60359 4.19794 7.5342 4.13959 7.4501C4.08789 7.37558 4.04956 7.29286 4.02628 7.20555C4 7.10702 4 7.00106 4 6.78915V6.26141Z" stroke="#2B332D" stroke-width="1.5" stroke-linecap="round" stroke-linejoin="round"/>
</g>
</svg>
