<svg width="182" height="112" viewBox="0 0 182 112" fill="none" xmlns="http://www.w3.org/2000/svg">
<g id="Logo">
<g id="Vector">
<path d="M177.625 87.8462H181.365V110.614H177.625V108.37C176.909 109.118 176.031 109.736 175.055 110.191C173.982 110.679 172.779 110.939 171.543 110.972C170.339 111.004 169.103 110.809 167.965 110.354C166.826 109.931 165.818 109.28 164.973 108.467C163.314 106.873 162.371 104.662 162.403 102.483C162.371 100.303 163.314 98.0916 164.973 96.4979C165.818 95.7173 166.826 95.0668 167.965 94.6114C169.103 94.1886 170.339 93.9935 171.543 93.9935C172.779 94.026 173.982 94.2862 175.055 94.7741C176.031 95.2294 176.909 95.8799 177.625 96.5955V87.8462ZM175.641 106.321C176.844 105.41 177.625 103.979 177.625 102.483C177.625 100.986 176.844 99.5553 175.641 98.6771C175.055 98.2217 174.372 97.864 173.689 97.6688C172.974 97.4737 172.258 97.3761 171.543 97.4086C170.112 97.4737 168.745 97.9941 167.737 98.9373C166.729 99.848 166.143 101.149 166.143 102.483C166.143 103.816 166.729 105.117 167.737 106.028C168.745 106.971 170.112 107.491 171.543 107.556C172.258 107.589 172.974 107.491 173.689 107.296C174.372 107.101 175.055 106.776 175.641 106.321Z" fill="white"/>
<path d="M155.992 94.3512H159.733V110.614H155.992V108.662C155.569 109.248 154.984 109.801 154.301 110.191C153.39 110.744 152.252 111.069 151.211 111.102C150.691 111.134 150.138 111.102 149.585 111.004C149.032 110.907 148.479 110.711 147.959 110.484C147.438 110.256 146.95 109.931 146.527 109.606C146.105 109.248 145.747 108.825 145.454 108.402C144.869 107.556 144.511 106.678 144.316 105.768C144.218 105.312 144.153 104.889 144.121 104.434C144.088 104.206 144.088 104.011 144.088 103.784V94.3512H147.828V103.718C147.828 103.849 147.828 104.011 147.861 104.174C147.894 104.467 147.926 104.759 148.024 105.02C148.154 105.54 148.414 106.06 148.739 106.418C149.032 106.808 149.39 107.101 149.78 107.296C150.203 107.524 150.658 107.654 151.211 107.687C151.764 107.752 152.284 107.752 152.805 107.589C153.325 107.459 153.846 107.231 154.301 106.808C154.789 106.418 155.179 105.833 155.439 105.215C155.732 104.597 155.862 103.946 155.927 103.198C155.96 103.003 155.96 102.808 155.992 102.58V94.3512Z" fill="white"/>
<path d="M132.538 93.9935C137.612 93.9935 141.71 97.7989 141.71 102.483C141.71 107.166 137.612 110.972 132.538 110.972C127.496 110.972 123.398 107.166 123.398 102.483C123.398 97.7989 127.496 93.9935 132.538 93.9935ZM132.538 107.556C135.53 107.556 137.97 105.28 137.97 102.483C137.97 99.6854 135.53 97.4086 132.538 97.4086C129.578 97.4086 127.139 99.6854 127.139 102.483C127.139 105.28 129.578 107.556 132.538 107.556Z" fill="white"/>
<path d="M120.773 110.614H117.032V87.8462H120.773V110.614Z" fill="white"/>
<path d="M99.4381 105.247C102.951 108.435 108.675 108.435 112.188 105.247L114.855 107.654C112.351 109.898 109.066 111.037 105.813 111.037C102.528 111.037 99.2755 109.931 96.771 107.654C91.7947 103.133 91.7947 95.7498 96.771 91.2288C101.747 86.7078 109.846 86.7078 114.855 91.2288L112.188 93.6357C108.675 90.4482 102.951 90.4482 99.4381 93.6357C95.9254 96.8557 95.9254 102.027 99.4381 105.247Z" fill="white"/>
<path d="M79.2692 91.5541C78.9765 91.7817 78.4236 92.2046 78.4236 94.026V94.3512H82.7495V97.7664H78.4236V110.614H74.6832V97.7664H71.4632V94.3512H74.6832V94.026C74.6832 91.7167 75.3337 90.123 76.7973 88.9846C78.5212 87.6185 80.6678 87.5209 82.7495 87.6185V91.0337C81.0256 90.9686 79.9523 91.0337 79.2692 91.5541Z" fill="white"/>
<path d="M61.1753 93.9935C66.2493 93.9935 70.3474 97.7989 70.3474 102.483C70.3474 107.166 66.2493 110.972 61.1753 110.972C56.1339 110.972 52.0358 107.166 52.0358 102.483C52.0358 97.7989 56.1339 93.9935 61.1753 93.9935ZM61.1753 107.556C64.1677 107.556 66.607 105.28 66.607 102.483C66.607 99.6854 64.1677 97.4086 61.1753 97.4086C58.2155 97.4086 55.7761 99.6854 55.7761 102.483C55.7761 105.28 58.2155 107.556 61.1753 107.556Z" fill="white"/>
<path d="M41.0059 93.9935C46.0798 93.9935 50.178 97.7989 50.178 102.483C50.178 107.166 46.0798 110.972 41.0059 110.972C35.9645 110.972 31.8663 107.166 31.8663 102.483C31.8663 97.7989 35.9645 93.9935 41.0059 93.9935ZM41.0059 107.556C43.9982 107.556 46.4376 105.28 46.4376 102.483C46.4376 99.6854 43.9982 97.4086 41.0059 97.4086C38.0461 97.4086 35.6067 99.6854 35.6067 102.483C35.6067 105.28 38.0461 107.556 41.0059 107.556Z" fill="white"/>
<path d="M30.5025 93.9609C30.8278 94.026 31.153 94.1236 31.4783 94.2211L30.6326 97.864C30.5025 97.7989 30.405 97.7339 30.2749 97.6688C29.8846 97.4411 29.4292 97.311 28.8763 97.2785C28.2908 97.2135 27.803 97.246 27.2825 97.3761C26.7621 97.5062 26.2417 97.7339 25.7539 98.1567C25.2985 98.547 24.9082 99.1324 24.6155 99.7504C24.3553 100.368 24.1927 101.051 24.1601 101.767C24.1276 101.962 24.0951 102.19 24.0951 102.385V110.614H20.3547V94.3512H24.0951V96.3028C24.5179 95.7173 25.0708 95.1644 25.7864 94.7741C26.6971 94.2211 27.8029 93.9284 28.8763 93.8634C29.3967 93.8634 29.9496 93.8959 30.5025 93.9609Z" fill="white"/>
<path d="M17.4335 92.0745C17.8889 92.9527 18.084 93.8959 18.084 94.9042C18.084 95.9124 17.8889 96.8557 17.4335 97.7013C17.0107 98.547 16.3602 99.2951 15.547 99.913C14.7664 100.499 13.8232 100.954 12.7499 101.279C11.7091 101.572 10.5382 101.734 9.26968 101.734H3.7404V110.842H0V88.0739H9.26968C10.5382 88.0739 11.7091 88.204 12.7499 88.5292C13.8232 88.822 14.7664 89.2773 15.547 89.8628C16.3602 90.4807 17.0107 91.2288 17.4335 92.0745ZM14.0184 96.2702C14.246 95.8474 14.3436 95.392 14.3436 94.9042C14.3436 94.3838 14.246 93.9284 14.0184 93.5056C13.8232 93.1153 13.563 92.79 13.1727 92.4973C12.7499 92.2046 12.2295 91.9444 11.579 91.7492C10.9285 91.5866 10.1479 91.489 9.26968 91.489H3.7404V98.3193H9.26968C10.1479 98.3193 10.9285 98.2217 11.579 98.0266C12.2295 97.864 12.7499 97.6038 13.1402 97.2785C13.5305 96.9858 13.8232 96.6605 14.0184 96.2702Z" fill="white"/>
</g>
<path id="Union" fill-rule="evenodd" clip-rule="evenodd" d="M68.6754 15.8693C73.0767 9.32592 80.3127 4.85807 88.6201 4.22061V28.5656H64.2615C64.623 23.8858 66.1993 19.5504 68.6754 15.8693ZM66.9527 61.449L88.6201 36.5949V61.449H78.5205H66.9527ZM111.428 61.449H92.7622V50.9148L111.428 61.449ZM119.833 61.436L94.4907 47.1342L120.015 32.7295C127.58 33.1447 133.586 39.4101 133.586 47.0783C133.586 54.808 127.483 61.1124 119.833 61.436ZM117.151 29.59L92.7622 43.3536V4.22293C106.076 5.2598 116.628 16.138 117.151 29.59ZM121.251 28.6763C120.24 12.6696 106.938 0 90.6763 0C80.077 0 70.7361 5.38437 65.2385 13.5575C62.2922 17.9377 60.4471 23.1217 60.0997 28.7071C54.6558 29.382 49.9457 32.4209 47.0289 36.7574C45.0449 39.707 43.887 43.2606 43.887 47.0783C43.887 57.3026 52.1754 65.591 62.3997 65.591H78.5205L119.215 65.591L119.232 65.591H119.516V65.5886C129.601 65.4279 137.728 57.2021 137.728 47.0783C137.728 37.5422 130.517 29.6901 121.251 28.6763ZM62.3997 32.7076C57.4308 32.7076 53.0496 35.2277 50.4658 39.0692C48.927 41.3569 48.029 44.1096 48.029 47.0783C48.029 54.707 53.9733 60.9473 61.4828 61.4202L86.514 32.7076H62.3997Z" fill="url(#paint0_linear_154_13366)"/>
</g>
<defs>
<linearGradient id="paint0_linear_154_13366" x1="52.693" y1="63.4963" x2="120.065" y2="24.4229" gradientUnits="userSpaceOnUse">
<stop stop-color="#0CFFF0"/>
<stop offset="1" stop-color="#0CFFA7"/>
</linearGradient>
</defs>
</svg>
