<svg width="254" height="144" viewBox="0 0 254 144" fill="none" xmlns="http://www.w3.org/2000/svg">
<path d="M248.737 120.651H253.856V142.906H248.737V139.835C247.758 140.859 246.556 141.704 245.221 142.328C243.752 142.995 242.105 143.351 240.414 143.396C238.767 143.44 237.075 143.129 235.518 142.55C233.96 141.972 232.58 141.081 231.423 139.969C229.153 137.788 227.862 134.761 227.906 131.779C227.862 128.797 229.153 125.77 231.423 123.589C232.58 122.521 233.96 121.631 235.518 121.007C237.075 120.429 238.767 120.162 240.414 120.162C242.105 120.206 243.752 120.562 245.221 121.23C246.556 121.853 247.758 122.743 248.737 123.722V120.651ZM246.022 137.031C247.669 135.785 248.737 133.826 248.737 131.779C248.737 129.731 247.669 127.773 246.022 126.571C245.221 125.948 244.286 125.458 243.351 125.191C242.372 124.924 241.393 124.791 240.414 124.835C238.455 124.924 236.586 125.636 235.206 126.927C233.826 128.173 233.025 129.954 233.025 131.779C233.025 133.604 233.826 135.384 235.206 136.63C236.586 137.921 238.455 138.633 240.414 138.722C241.393 138.767 242.372 138.633 243.351 138.366C244.286 138.099 245.221 137.654 246.022 137.031Z" fill="white"/>
<path d="M224.652 142.906H219.534V130.8V130.087C219.534 129.909 219.489 129.687 219.489 129.509C219.445 129.064 219.356 128.708 219.267 128.307C219.044 127.595 218.688 126.883 218.287 126.393C217.887 125.859 217.397 125.458 216.819 125.191C216.285 124.88 215.661 124.702 214.905 124.657C214.104 124.568 213.436 124.613 212.724 124.791C212.012 124.969 211.299 125.325 210.632 125.859C210.009 126.393 209.475 127.194 209.074 128.04C208.718 128.886 208.495 129.82 208.451 130.8C208.406 131.067 208.362 131.378 208.362 131.645V142.906H203.243V120.651H208.362V123.322C208.94 122.521 209.697 121.764 210.632 121.23C211.923 120.473 213.436 120.073 214.905 119.984C215.617 119.984 216.374 120.028 217.13 120.117C217.887 120.251 218.644 120.518 219.356 120.829C220.068 121.141 220.691 121.586 221.27 122.076C221.848 122.565 222.338 123.099 222.738 123.678C223.584 124.835 224.029 126.037 224.341 127.283C224.474 127.906 224.563 128.53 224.608 129.108C224.608 129.42 224.652 129.687 224.652 129.998V130.8V142.906Z" fill="white"/>
<path d="M198.52 133.693H179.959C180.983 136.586 184.143 138.722 187.882 138.722C190.419 138.722 192.778 137.743 194.291 136.185L199.054 138.188C196.606 141.393 192.467 143.396 187.882 143.396C180.538 143.396 174.529 138.188 174.529 131.779C174.529 125.369 180.137 120.162 187.036 120.162C193.98 120.162 199.588 125.369 199.588 131.779C199.588 132.446 199.544 133.07 199.41 133.693H198.52ZM179.959 129.865H194.158C193.268 126.972 190.419 124.835 187.036 124.835C183.698 124.835 180.849 126.972 179.959 129.865Z" fill="white"/>
<path d="M172.663 120.117C173.109 120.206 173.554 120.34 173.999 120.473L172.841 125.458C172.663 125.369 172.53 125.28 172.352 125.191C171.818 124.88 171.195 124.702 170.438 124.657C169.637 124.568 168.969 124.613 168.257 124.791C167.545 124.969 166.833 125.28 166.165 125.859C165.542 126.393 165.008 127.194 164.607 128.04C164.251 128.886 164.029 129.82 163.984 130.8C163.94 131.067 163.895 131.378 163.895 131.645V142.906H158.776V120.651H163.895V123.322C164.474 122.521 165.23 121.764 166.21 121.23C167.456 120.473 168.969 120.073 170.438 119.984C171.15 119.984 171.907 120.028 172.663 120.117Z" fill="white"/>
<path d="M144.008 112.061L156.337 143.173H150.863L147.88 135.651H133.059L130.076 143.173H124.646L136.931 112.061H144.008ZM134.928 130.978H146.055L140.492 116.912L134.928 130.978Z" fill="white"/>
<path d="M108.478 116.823C108.077 117.135 107.321 117.714 107.321 120.206V120.651H113.241V125.325H107.321V142.906H102.202V125.325H97.7957V120.651H102.202V120.206C102.202 117.046 103.092 114.865 105.095 113.307C107.454 111.438 110.392 111.304 113.241 111.438V116.111C110.882 116.022 109.413 116.111 108.478 116.823Z" fill="white"/>
<path d="M83.717 120.162C90.6605 120.162 96.2688 125.369 96.2688 131.779C96.2688 138.188 90.6605 143.396 83.717 143.396C76.818 143.396 71.2097 138.188 71.2097 131.779C71.2097 125.369 76.818 120.162 83.717 120.162ZM83.717 138.722C87.8119 138.722 91.1501 135.607 91.1501 131.779C91.1501 127.951 87.8119 124.835 83.717 124.835C79.6666 124.835 76.3283 127.951 76.3283 131.779C76.3283 135.607 79.6666 138.722 83.717 138.722Z" fill="white"/>
<path d="M56.1157 120.162C63.0592 120.162 68.6674 125.369 68.6674 131.779C68.6674 138.188 63.0592 143.396 56.1157 143.396C49.2166 143.396 43.6084 138.188 43.6084 131.779C43.6084 125.369 49.2166 120.162 56.1157 120.162ZM56.1157 138.722C60.2106 138.722 63.5488 135.607 63.5488 131.779C63.5488 127.951 60.2106 124.835 56.1157 124.835C52.0653 124.835 48.727 127.951 48.727 131.779C48.727 135.607 52.0653 138.722 56.1157 138.722Z" fill="white"/>
<path d="M41.7421 120.117C42.1872 120.206 42.6323 120.34 43.0773 120.473L41.9201 125.458C41.7421 125.369 41.6085 125.28 41.4305 125.191C40.8964 124.88 40.2732 124.702 39.5166 124.657C38.7154 124.568 38.0477 124.613 37.3356 124.791C36.6234 124.969 35.9113 125.28 35.2436 125.859C34.6205 126.393 34.0864 127.194 33.6858 128.04C33.3297 128.886 33.1071 129.82 33.0626 130.8C33.0181 131.067 32.9736 131.378 32.9736 131.645V142.906H27.855V120.651H32.9736V123.322C33.5522 122.521 34.3089 121.764 35.2881 121.23C36.5344 120.473 38.0477 120.073 39.5166 119.984C40.2287 119.984 40.9854 120.028 41.7421 120.117Z" fill="white"/>
<path d="M23.8573 117.536C24.4804 118.737 24.7475 120.028 24.7475 121.408C24.7475 122.788 24.4804 124.079 23.8573 125.236C23.2787 126.393 22.3885 127.417 21.2757 128.263C20.2075 129.064 18.9167 129.687 17.4479 130.132C16.0235 130.533 14.4212 130.755 12.6853 130.755H5.11863V143.218H0V112.061H12.6853C14.4212 112.061 16.0235 112.239 17.4479 112.684C18.9167 113.085 20.2075 113.708 21.2757 114.509C22.3885 115.355 23.2787 116.378 23.8573 117.536ZM19.1837 123.277C19.4953 122.699 19.6288 122.076 19.6288 121.408C19.6288 120.696 19.4953 120.073 19.1837 119.494C18.9167 118.96 18.5606 118.515 18.0265 118.114C17.4479 117.714 16.7357 117.358 15.8455 117.091C14.9553 116.868 13.8871 116.734 12.6853 116.734H5.11863V126.082H12.6853C13.8871 126.082 14.9553 125.948 15.8455 125.681C16.7357 125.458 17.4479 125.102 17.982 124.657C18.5161 124.257 18.9167 123.812 19.1837 123.277Z" fill="white"/>
<path d="M85.9611 54.6425L103.509 24.3369C103.759 23.906 104.219 23.6406 104.717 23.6406L121.154 23.6406C122.229 23.6406 122.9 24.8041 122.363 25.7346L112.215 43.296C111.677 44.2264 112.349 45.39 113.423 45.39H127.642C128.826 45.39 129.472 46.7718 128.713 47.6806L85 99.9999L103.058 58.6923C103.461 57.7703 102.785 56.7376 101.779 56.7376H87.1689C86.0937 56.7376 85.4223 55.5729 85.9611 54.6425Z" fill="#34A853"/>
<path d="M86.2242 14.9223L94.525 0.692451C94.7751 0.263665 95.2341 0 95.7306 0H150.447C165.399 0 174.756 16.1729 167.302 29.135L151.833 56.0376C151.584 56.4707 151.123 56.7376 150.623 56.7376H134.227C133.152 56.7376 132.481 55.5745 133.018 54.644L148.883 27.1657C151.486 22.6571 148.233 17.0213 143.027 17.0213H87.4298C86.3526 17.0213 85.6814 15.8528 86.2242 14.9223Z" fill="#34A853"/>
</svg>
