<svg width="254" height="142" viewBox="0 0 254 142" fill="none" xmlns="http://www.w3.org/2000/svg">
<path d="M248.737 118.651H253.856V140.906H248.737V137.835C247.758 138.859 246.556 139.704 245.221 140.328C243.752 140.995 242.105 141.351 240.414 141.396C238.767 141.44 237.075 141.129 235.518 140.55C233.96 139.972 232.58 139.081 231.423 137.969C229.153 135.788 227.862 132.761 227.906 129.779C227.862 126.797 229.153 123.77 231.423 121.589C232.58 120.521 233.96 119.631 235.518 119.007C237.075 118.429 238.767 118.162 240.414 118.162C242.105 118.206 243.752 118.562 245.221 119.23C246.556 119.853 247.758 120.743 248.737 121.722V118.651ZM246.022 135.031C247.669 133.785 248.737 131.826 248.737 129.779C248.737 127.731 247.669 125.773 246.022 124.571C245.221 123.948 244.286 123.458 243.351 123.191C242.372 122.924 241.393 122.791 240.414 122.835C238.455 122.924 236.586 123.636 235.206 124.927C233.826 126.173 233.025 127.954 233.025 129.779C233.025 131.604 233.826 133.384 235.206 134.63C236.586 135.921 238.455 136.633 240.414 136.722C241.393 136.767 242.372 136.633 243.351 136.366C244.286 136.099 245.221 135.654 246.022 135.031Z" fill="black"/>
<path d="M224.652 140.906H219.534V128.8V128.087C219.534 127.909 219.489 127.687 219.489 127.509C219.445 127.064 219.356 126.708 219.267 126.307C219.044 125.595 218.688 124.883 218.287 124.393C217.887 123.859 217.397 123.458 216.819 123.191C216.285 122.88 215.661 122.702 214.905 122.657C214.104 122.568 213.436 122.613 212.724 122.791C212.012 122.969 211.299 123.325 210.632 123.859C210.009 124.393 209.475 125.194 209.074 126.04C208.718 126.886 208.495 127.82 208.451 128.8C208.406 129.067 208.362 129.378 208.362 129.645V140.906H203.243V118.651H208.362V121.322C208.94 120.521 209.697 119.764 210.632 119.23C211.923 118.473 213.436 118.073 214.905 117.984C215.617 117.984 216.374 118.028 217.13 118.117C217.887 118.251 218.644 118.518 219.356 118.829C220.068 119.141 220.691 119.586 221.27 120.076C221.848 120.565 222.338 121.099 222.738 121.678C223.584 122.835 224.029 124.037 224.341 125.283C224.474 125.906 224.563 126.53 224.608 127.108C224.608 127.42 224.652 127.687 224.652 127.998V128.8V140.906Z" fill="black"/>
<path d="M198.52 131.693H179.959C180.983 134.586 184.143 136.722 187.882 136.722C190.419 136.722 192.778 135.743 194.291 134.185L199.054 136.188C196.606 139.393 192.467 141.396 187.882 141.396C180.538 141.396 174.529 136.188 174.529 129.779C174.529 123.369 180.137 118.162 187.036 118.162C193.98 118.162 199.588 123.369 199.588 129.779C199.588 130.446 199.544 131.07 199.41 131.693H198.52ZM179.959 127.865H194.158C193.268 124.972 190.419 122.835 187.036 122.835C183.698 122.835 180.849 124.972 179.959 127.865Z" fill="black"/>
<path d="M172.663 118.117C173.109 118.206 173.554 118.34 173.999 118.473L172.841 123.458C172.663 123.369 172.53 123.28 172.352 123.191C171.818 122.88 171.195 122.702 170.438 122.657C169.637 122.568 168.969 122.613 168.257 122.791C167.545 122.969 166.833 123.28 166.165 123.859C165.542 124.393 165.008 125.194 164.607 126.04C164.251 126.886 164.029 127.82 163.984 128.8C163.94 129.067 163.895 129.378 163.895 129.645V140.906H158.776V118.651H163.895V121.322C164.474 120.521 165.23 119.764 166.21 119.23C167.456 118.473 168.969 118.073 170.438 117.984C171.15 117.984 171.907 118.028 172.663 118.117Z" fill="black"/>
<path d="M144.008 110.061L156.337 141.173H150.863L147.88 133.651H133.059L130.076 141.173H124.646L136.931 110.061H144.008ZM134.928 128.978H146.055L140.492 114.912L134.928 128.978Z" fill="black"/>
<path d="M108.478 114.823C108.077 115.135 107.321 115.714 107.321 118.206V118.651H113.241V123.325H107.321V140.906H102.202V123.325H97.7957V118.651H102.202V118.206C102.202 115.046 103.092 112.865 105.095 111.307C107.454 109.438 110.392 109.304 113.241 109.438V114.111C110.882 114.022 109.413 114.111 108.478 114.823Z" fill="black"/>
<path d="M83.717 118.162C90.6605 118.162 96.2688 123.369 96.2688 129.779C96.2688 136.188 90.6605 141.396 83.717 141.396C76.818 141.396 71.2097 136.188 71.2097 129.779C71.2097 123.369 76.818 118.162 83.717 118.162ZM83.717 136.722C87.8119 136.722 91.1501 133.607 91.1501 129.779C91.1501 125.951 87.8119 122.835 83.717 122.835C79.6666 122.835 76.3283 125.951 76.3283 129.779C76.3283 133.607 79.6666 136.722 83.717 136.722Z" fill="black"/>
<path d="M56.1157 118.162C63.0592 118.162 68.6674 123.369 68.6674 129.779C68.6674 136.188 63.0592 141.396 56.1157 141.396C49.2166 141.396 43.6084 136.188 43.6084 129.779C43.6084 123.369 49.2166 118.162 56.1157 118.162ZM56.1157 136.722C60.2106 136.722 63.5488 133.607 63.5488 129.779C63.5488 125.951 60.2106 122.835 56.1157 122.835C52.0653 122.835 48.727 125.951 48.727 129.779C48.727 133.607 52.0653 136.722 56.1157 136.722Z" fill="black"/>
<path d="M41.7421 118.117C42.1872 118.206 42.6323 118.34 43.0773 118.473L41.9201 123.458C41.7421 123.369 41.6085 123.28 41.4305 123.191C40.8964 122.88 40.2732 122.702 39.5166 122.657C38.7154 122.568 38.0477 122.613 37.3356 122.791C36.6234 122.969 35.9113 123.28 35.2436 123.859C34.6205 124.393 34.0864 125.194 33.6858 126.04C33.3297 126.886 33.1071 127.82 33.0626 128.8C33.0181 129.067 32.9736 129.378 32.9736 129.645V140.906H27.855V118.651H32.9736V121.322C33.5522 120.521 34.3089 119.764 35.2881 119.23C36.5344 118.473 38.0477 118.073 39.5166 117.984C40.2287 117.984 40.9854 118.028 41.7421 118.117Z" fill="black"/>
<path d="M23.8573 115.536C24.4804 116.737 24.7475 118.028 24.7475 119.408C24.7475 120.788 24.4804 122.079 23.8573 123.236C23.2787 124.393 22.3885 125.417 21.2757 126.263C20.2075 127.064 18.9167 127.687 17.4479 128.132C16.0235 128.533 14.4212 128.755 12.6853 128.755H5.11863V141.218H0V110.061H12.6853C14.4212 110.061 16.0235 110.239 17.4479 110.684C18.9167 111.085 20.2075 111.708 21.2757 112.509C22.3885 113.355 23.2787 114.378 23.8573 115.536ZM19.1837 121.277C19.4953 120.699 19.6288 120.076 19.6288 119.408C19.6288 118.696 19.4953 118.073 19.1837 117.494C18.9167 116.96 18.5606 116.515 18.0265 116.114C17.4479 115.714 16.7357 115.358 15.8455 115.091C14.9553 114.868 13.8871 114.734 12.6853 114.734H5.11863V124.082H12.6853C13.8871 124.082 14.9553 123.948 15.8455 123.681C16.7357 123.458 17.4479 123.102 17.982 122.657C18.5161 122.257 18.9167 121.812 19.1837 121.277Z" fill="black"/>
<path d="M85.9611 54.6425L103.509 24.3369C103.759 23.906 104.219 23.6406 104.717 23.6406L121.154 23.6406C122.229 23.6406 122.9 24.8041 122.363 25.7346L112.215 43.296C111.677 44.2264 112.349 45.39 113.423 45.39H127.642C128.826 45.39 129.472 46.7718 128.713 47.6806L85 99.9999L103.058 58.6923C103.461 57.7703 102.785 56.7376 101.779 56.7376H87.1689C86.0937 56.7376 85.4223 55.5729 85.9611 54.6425Z" fill="#34A853"/>
<path d="M86.2242 14.9223L94.525 0.692451C94.7751 0.263665 95.2341 0 95.7306 0H150.447C165.399 0 174.756 16.1729 167.302 29.135L151.833 56.0376C151.584 56.4707 151.123 56.7376 150.623 56.7376H134.227C133.152 56.7376 132.481 55.5745 133.018 54.644L148.883 27.1657C151.486 22.6571 148.233 17.0213 143.027 17.0213H87.4298C86.3526 17.0213 85.6814 15.8528 86.2242 14.9223Z" fill="#34A853"/>
</svg>
