<svg width="193" height="35" viewBox="0 0 193 35" fill="none" xmlns="http://www.w3.org/2000/svg">
<g id="Logo">
<g id="Vector">
<path d="M190.258 10.6301H193V27.3207H190.258V25.6755C189.733 26.2239 189.09 26.6769 188.374 27.0107C187.587 27.3684 186.705 27.5591 185.799 27.583C184.917 27.6068 184.011 27.4638 183.176 27.1299C182.342 26.82 181.603 26.3431 180.983 25.747C179.767 24.5787 179.075 22.9573 179.099 21.3598C179.075 19.7623 179.767 18.1409 180.983 16.9726C181.603 16.4003 182.342 15.9234 183.176 15.5896C184.011 15.2797 184.917 15.1366 185.799 15.1366C186.705 15.1604 187.587 15.3512 188.374 15.7088C189.09 16.0426 189.733 16.5195 190.258 17.0441V10.6301ZM188.803 24.1733C189.686 23.5057 190.258 22.4566 190.258 21.3598C190.258 20.263 189.686 19.2139 188.803 18.5701C188.374 18.2363 187.874 17.974 187.373 17.8309C186.848 17.6879 186.324 17.6163 185.799 17.6402C184.75 17.6879 183.749 18.0694 183.009 18.7608C182.27 19.4284 181.841 20.3822 181.841 21.3598C181.841 22.3374 182.27 23.2911 183.009 23.9587C183.749 24.6502 184.75 25.0317 185.799 25.0794C186.324 25.1032 186.848 25.0317 187.373 24.8886C187.874 24.7456 188.374 24.5071 188.803 24.1733Z" fill="white"/>
<path d="M174.399 15.3989H177.141V27.3207H174.399V25.8901C174.09 26.3193 173.66 26.7246 173.16 27.0107C172.492 27.4161 171.657 27.6545 170.894 27.6783C170.513 27.7022 170.108 27.6783 169.702 27.6068C169.297 27.5353 168.892 27.3922 168.51 27.2253C168.129 27.0584 167.771 26.82 167.461 26.5815C167.151 26.3193 166.889 26.0093 166.674 25.6993C166.245 25.0794 165.983 24.4356 165.84 23.768C165.768 23.4342 165.72 23.1242 165.697 22.7904C165.673 22.6235 165.673 22.4804 165.673 22.3135V15.3989H168.415V22.2658C168.415 22.3612 168.415 22.4804 168.439 22.5997C168.462 22.8142 168.486 23.0288 168.558 23.2196C168.653 23.6011 168.844 23.9826 169.082 24.2449C169.297 24.531 169.559 24.7456 169.845 24.8886C170.155 25.0555 170.489 25.1509 170.894 25.1748C171.3 25.2225 171.681 25.2225 172.063 25.1032C172.444 25.0079 172.826 24.841 173.16 24.531C173.517 24.2449 173.803 23.8157 173.994 23.3626C174.209 22.9096 174.304 22.4327 174.352 21.8843C174.376 21.7413 174.376 21.5982 174.399 21.4313V15.3989Z" fill="white"/>
<path d="M157.205 15.1366C160.925 15.1366 163.929 17.9263 163.929 21.3598C163.929 24.7933 160.925 27.583 157.205 27.583C153.51 27.583 150.505 24.7933 150.505 21.3598C150.505 17.9263 153.51 15.1366 157.205 15.1366ZM157.205 25.0794C159.399 25.0794 161.187 23.4103 161.187 21.3598C161.187 19.3092 159.399 17.6402 157.205 17.6402C155.036 17.6402 153.247 19.3092 153.247 21.3598C153.247 23.4103 155.036 25.0794 157.205 25.0794Z" fill="white"/>
<path d="M148.581 27.3207H145.839V10.6301H148.581V27.3207Z" fill="white"/>
<path d="M132.941 23.3865C135.516 25.7232 139.712 25.7232 142.287 23.3865L144.243 25.1509C142.407 26.7961 139.998 27.6307 137.614 27.6307C135.206 27.6307 132.821 26.82 130.985 25.1509C127.337 21.8367 127.337 16.4241 130.985 13.1099C134.634 9.79561 140.571 9.79561 144.243 13.1099L142.287 14.8743C139.712 12.5376 135.516 12.5376 132.941 14.8743C130.365 17.2348 130.365 21.026 132.941 23.3865Z" fill="white"/>
<path d="M118.155 13.3483C117.941 13.5152 117.535 13.8252 117.535 15.1604V15.3989H120.706V17.9025H117.535V27.3207H114.793V17.9025H112.433V15.3989H114.793V15.1604C114.793 13.4675 115.27 12.2992 116.343 11.4647C117.607 10.4632 119.18 10.3917 120.706 10.4632V12.9668C119.443 12.9191 118.656 12.9668 118.155 13.3483Z" fill="white"/>
<path d="M104.891 15.1366C108.61 15.1366 111.615 17.9263 111.615 21.3598C111.615 24.7933 108.61 27.583 104.891 27.583C101.195 27.583 98.1908 24.7933 98.1908 21.3598C98.1908 17.9263 101.195 15.1366 104.891 15.1366ZM104.891 25.0794C107.084 25.0794 108.873 23.4103 108.873 21.3598C108.873 19.3092 107.084 17.6402 104.891 17.6402C102.721 17.6402 100.933 19.3092 100.933 21.3598C100.933 23.4103 102.721 25.0794 104.891 25.0794Z" fill="white"/>
<path d="M90.105 15.1366C93.8246 15.1366 96.8289 17.9263 96.8289 21.3598C96.8289 24.7933 93.8246 27.583 90.105 27.583C86.4092 27.583 83.4049 24.7933 83.4049 21.3598C83.4049 17.9263 86.4092 15.1366 90.105 15.1366ZM90.105 25.0794C92.2986 25.0794 94.0869 23.4103 94.0869 21.3598C94.0869 19.3092 92.2986 17.6402 90.105 17.6402C87.9352 17.6402 86.147 19.3092 86.147 21.3598C86.147 23.4103 87.9352 25.0794 90.105 25.0794Z" fill="white"/>
<path d="M82.4052 15.1127C82.6436 15.1604 82.8821 15.232 83.1205 15.3035L82.5006 17.974C82.4052 17.9263 82.3337 17.8786 82.2383 17.8309C81.9522 17.664 81.6183 17.5686 81.213 17.5448C80.7838 17.4971 80.4262 17.521 80.0447 17.6163C79.6632 17.7117 79.2817 17.8786 78.924 18.1886C78.5902 18.4747 78.3041 18.9039 78.0895 19.3569C77.8987 19.8099 77.7795 20.3107 77.7557 20.8352C77.7318 20.9783 77.708 21.1452 77.708 21.2882V27.3207H74.966V15.3989H77.708V16.8295C78.018 16.4003 78.4233 15.995 78.9479 15.7088C79.6155 15.3035 80.4262 15.0889 81.213 15.0412C81.5945 15.0412 81.9998 15.0651 82.4052 15.1127Z" fill="white"/>
<path d="M72.8245 13.7298C73.1583 14.3736 73.3014 15.0651 73.3014 15.8042C73.3014 16.5434 73.1583 17.2348 72.8245 17.8548C72.5145 18.4747 72.0377 19.0231 71.4416 19.4761C70.8693 19.9053 70.1779 20.2391 69.391 20.4776C68.628 20.6922 67.7697 20.8114 66.8398 20.8114H62.7863V27.4876H60.0443V10.797H66.8398C67.7697 10.797 68.628 10.8924 69.391 11.1309C70.1779 11.3454 70.8693 11.6793 71.4416 12.1084C72.0377 12.5615 72.5145 13.1099 72.8245 13.7298ZM70.3209 16.8056C70.4878 16.4957 70.5594 16.1619 70.5594 15.8042C70.5594 15.4227 70.4878 15.0889 70.3209 14.7789C70.1779 14.4928 69.9871 14.2544 69.701 14.0398C69.391 13.8252 69.0095 13.6344 68.5326 13.4914C68.0558 13.3722 67.4835 13.3006 66.8398 13.3006H62.7863V18.3078H66.8398C67.4835 18.3078 68.0558 18.2363 68.5326 18.0932C69.0095 17.974 69.391 17.7832 69.6771 17.5448C69.9633 17.3302 70.1779 17.0918 70.3209 16.8056Z" fill="white"/>
</g>
<path id="Union" fill-rule="evenodd" clip-rule="evenodd" d="M13.1431 8.4137C15.4766 4.94452 19.3129 2.57574 23.7174 2.23773V15.1451H10.8029C10.9945 12.6639 11.8303 10.3654 13.1431 8.4137ZM12.2292 32.5795L23.7174 19.4016V32.5795H18.3622H12.2292ZM35.8101 32.5795H25.9134V26.9943L35.8101 32.5795ZM40.266 32.5725L26.8299 24.9899L40.3625 17.3528C44.3728 17.5731 47.5568 20.8949 47.5568 24.9603C47.5568 29.0582 44.3216 32.4006 40.266 32.5725ZM38.844 15.6881L25.9134 22.9854V2.23893C32.9723 2.7886 38.5669 8.55602 38.844 15.6881ZM41.0181 15.2038C40.4822 6.7173 33.4294 0 24.8077 0C19.1881 0 14.2356 2.85472 11.3209 7.18802C9.75882 9.51031 8.78054 12.2588 8.59633 15.22C5.70981 15.5777 3.21238 17.189 1.66579 19.4883C0.613882 21.0521 0 22.9362 0 24.9603C0 30.3811 4.39442 34.7755 9.81522 34.7755H18.3622H39.9377H40.0974V34.7742C45.4446 34.6889 49.7529 30.3277 49.7529 24.9603C49.7529 19.9046 45.9305 15.7417 41.0181 15.2038ZM9.81522 17.3411C7.18074 17.3411 4.85792 18.6773 3.48798 20.7139C2.67213 21.9269 2.19605 23.3863 2.19605 24.9603C2.19605 29.0049 5.34764 32.3135 9.32907 32.5642L22.6003 17.3411H9.81522Z" fill="url(#paint0_linear_154_13448)"/>
</g>
<defs>
<linearGradient id="paint0_linear_154_13448" x1="2.48517" y1="37.3718" x2="43.998" y2="18.3353" gradientUnits="userSpaceOnUse">
<stop stop-color="#0CFFF0"/>
<stop offset="1" stop-color="#0CFFA7"/>
</linearGradient>
</defs>
</svg>
