<svg width="366" height="72" viewBox="0 0 366 72" fill="none" xmlns="http://www.w3.org/2000/svg">
<path d="M358.629 24.8077H364.388V49.8445H358.629V46.3894C357.528 47.5411 356.176 48.4925 354.673 49.1935C353.021 49.9446 351.168 50.3452 349.265 50.3953C347.413 50.4454 345.51 50.0949 343.757 49.4439C342.005 48.793 340.452 47.7915 339.151 46.5396C336.597 44.086 335.145 40.681 335.195 37.3261C335.145 33.9712 336.597 30.5662 339.151 28.1126C340.452 26.9108 342.005 25.9093 343.757 25.2083C345.51 24.5573 347.413 24.2569 349.265 24.2569C351.168 24.307 353.021 24.7076 354.673 25.4587C356.176 26.1597 357.528 27.1612 358.629 28.2628V24.8077ZM355.575 43.2348C357.427 41.8327 358.629 39.6295 358.629 37.3261C358.629 35.0227 357.427 32.8195 355.575 31.4675C354.673 30.7665 353.622 30.2157 352.57 29.9152C351.469 29.6148 350.367 29.4645 349.265 29.5146C347.062 29.6148 344.959 30.4159 343.407 31.8681C341.855 33.2701 340.953 35.2731 340.953 37.3261C340.953 39.3791 341.855 41.3821 343.407 42.7841C344.959 44.2363 347.062 45.0374 349.265 45.1376C350.367 45.1877 351.469 45.0374 352.57 44.737C353.622 44.4366 354.673 43.9358 355.575 43.2348Z" fill="white"/>
<path d="M331.533 49.8445H325.775V36.2245V35.4233C325.775 35.2231 325.725 34.9727 325.725 34.7724C325.675 34.2717 325.575 33.8711 325.474 33.4204C325.224 32.6192 324.823 31.818 324.373 31.2672C323.922 30.6664 323.371 30.2157 322.72 29.9152C322.119 29.5647 321.418 29.3644 320.567 29.3144C319.666 29.2142 318.915 29.2643 318.114 29.4646C317.312 29.6649 316.511 30.0655 315.76 30.6664C315.059 31.2672 314.458 32.1686 314.008 33.12C313.607 34.0714 313.357 35.1229 313.306 36.2245C313.256 36.525 313.206 36.8755 313.206 37.1759V49.8445H307.448V24.8077H313.206V27.8122C313.857 26.9108 314.709 26.0596 315.76 25.4587C317.212 24.6074 318.915 24.1568 320.567 24.0566C321.368 24.0566 322.22 24.1067 323.071 24.2069C323.922 24.3571 324.773 24.6575 325.575 25.008C326.376 25.3586 327.077 25.8593 327.728 26.4101C328.379 26.9609 328.929 27.5618 329.38 28.2127C330.332 29.5147 330.832 30.8666 331.183 32.2687C331.333 32.9697 331.433 33.6708 331.483 34.3217C331.483 34.6722 331.533 34.9727 331.533 35.3232V36.2245V49.8445Z" fill="white"/>
<path d="M302.134 39.4793H281.254C282.405 42.734 285.961 45.1376 290.167 45.1376C293.021 45.1376 295.675 44.036 297.377 42.2834L302.735 44.5367C299.981 48.142 295.324 50.3953 290.167 50.3953C281.905 50.3953 275.145 44.5367 275.145 37.3261C275.145 30.1155 281.454 24.2569 289.215 24.2569C297.027 24.2569 303.336 30.1155 303.336 37.3261C303.336 38.0772 303.286 38.7782 303.136 39.4793H302.134ZM281.254 35.1729H297.227C296.226 31.9182 293.021 29.5146 289.215 29.5146C285.46 29.5146 282.255 31.9182 281.254 35.1729Z" fill="white"/>
<path d="M273.046 24.2069C273.547 24.307 274.048 24.4572 274.548 24.6074L273.246 30.2157C273.046 30.1155 272.896 30.0154 272.696 29.9152C272.095 29.5647 271.394 29.3644 270.542 29.3144C269.641 29.2142 268.89 29.2643 268.089 29.4646C267.288 29.6649 266.487 30.0154 265.735 30.6664C265.034 31.2672 264.434 32.1686 263.983 33.12C263.582 34.0714 263.332 35.1229 263.282 36.2245C263.232 36.525 263.182 36.8755 263.182 37.1759V49.8445H257.423V24.8077H263.182V27.8122C263.833 26.9108 264.684 26.0596 265.785 25.4587C267.188 24.6074 268.89 24.1568 270.542 24.0566C271.344 24.0566 272.195 24.1067 273.046 24.2069Z" fill="white"/>
<path d="M240.809 15.1435L254.679 50.1449H248.52L245.165 41.6825H228.491L225.136 50.1449H219.027L232.847 15.1435H240.809ZM230.594 36.4248H243.112L236.853 20.6015L230.594 36.4248Z" fill="white"/>
<path d="M200.837 20.5014C200.387 20.8519 199.535 21.5028 199.535 24.307V24.8077H206.195V30.0654H199.535V49.8445H193.777V30.0654H188.82V24.8077H193.777V24.307C193.777 20.7517 194.778 18.2981 197.032 16.5456C199.686 14.4425 202.991 14.2923 206.195 14.4425V19.7002C203.541 19.6001 201.889 19.7002 200.837 20.5014Z" fill="white"/>
<path d="M172.981 24.2569C180.792 24.2569 187.102 30.1155 187.102 37.3261C187.102 44.5367 180.792 50.3953 172.981 50.3953C165.22 50.3953 158.91 44.5367 158.91 37.3261C158.91 30.1155 165.22 24.2569 172.981 24.2569ZM172.981 45.1376C177.588 45.1376 181.343 41.6324 181.343 37.3261C181.343 33.0198 177.588 29.5146 172.981 29.5146C168.424 29.5146 164.669 33.0198 164.669 37.3261C164.669 41.6324 168.424 45.1376 172.981 45.1376Z" fill="white"/>
<path d="M141.93 24.2569C149.741 24.2569 156.05 30.1155 156.05 37.3261C156.05 44.5367 149.741 50.3953 141.93 50.3953C134.168 50.3953 127.859 44.5367 127.859 37.3261C127.859 30.1155 134.168 24.2569 141.93 24.2569ZM141.93 45.1376C146.536 45.1376 150.292 41.6324 150.292 37.3261C150.292 33.0198 146.536 29.5146 141.93 29.5146C137.373 29.5146 133.617 33.0198 133.617 37.3261C133.617 41.6324 137.373 45.1376 141.93 45.1376Z" fill="white"/>
<path d="M125.759 24.2069C126.26 24.307 126.761 24.4572 127.262 24.6074L125.96 30.2157C125.759 30.1155 125.609 30.0154 125.409 29.9152C124.808 29.5647 124.107 29.3644 123.256 29.3144C122.354 29.2142 121.603 29.2643 120.802 29.4646C120.001 29.6649 119.2 30.0154 118.449 30.6664C117.748 31.2672 117.147 32.1686 116.696 33.12C116.295 34.0714 116.045 35.1229 115.995 36.2245C115.945 36.525 115.895 36.8755 115.895 37.1759V49.8445H110.136V24.8077H115.895V27.8122C116.546 26.9108 117.397 26.0596 118.499 25.4587C119.901 24.6074 121.603 24.1568 123.256 24.0566C124.057 24.0566 124.908 24.1067 125.759 24.2069Z" fill="white"/>
<path d="M105.639 21.3025C106.34 22.6545 106.641 24.1067 106.641 25.6589C106.641 27.2112 106.34 28.6634 105.639 29.9653C104.988 31.2672 103.987 32.4189 102.735 33.3703C101.533 34.2716 100.081 34.9726 98.4285 35.4734C96.8262 35.924 95.0235 36.1744 93.0707 36.1744H84.5581V50.195H78.7997V15.1435H93.0707C95.0235 15.1435 96.8262 15.3438 98.4285 15.8445C100.081 16.2952 101.533 16.9962 102.735 17.8975C103.987 18.8489 104.988 20.0006 105.639 21.3025ZM100.381 27.762C100.732 27.1111 100.882 26.4101 100.882 25.6589C100.882 24.8578 100.732 24.1567 100.381 23.5058C100.081 22.9049 99.6804 22.4042 99.0795 21.9535C98.4285 21.5028 97.6273 21.1023 96.6259 20.8018C95.6244 20.5514 94.4226 20.4012 93.0707 20.4012H84.5581V30.9167H93.0707C94.4226 30.9167 95.6244 30.7665 96.6259 30.466C97.6273 30.2156 98.4285 29.8151 99.0294 29.3143C99.6303 28.8637 100.081 28.3629 100.381 27.762Z" fill="white"/>
<path d="M0.873481 39.3426L13.5083 17.5226C13.688 17.2123 14.0194 17.0213 14.3779 17.0213L26.2126 17.0212C26.9864 17.0212 27.4698 17.859 27.0827 18.5289L19.7762 31.1731C19.3891 31.8431 19.8726 32.6808 20.6463 32.6808H30.8835C31.7361 32.6808 32.2014 33.6758 31.6547 34.33L0.181519 72L13.1833 42.2585C13.4735 41.5946 12.9871 40.8511 12.2625 40.8511H1.74312C0.968969 40.8511 0.485554 40.0126 0.873481 39.3426Z" fill="#34A853"/>
<path d="M1.06309 10.7441L7.03963 0.498565C7.21972 0.189839 7.55024 0 7.90765 0H47.3034C58.069 0 64.8056 11.6445 59.4393 20.9772L48.3016 40.3471C48.1224 40.6589 47.7901 40.8511 47.4305 40.8511H35.6248C34.8512 40.8511 34.3677 40.0136 34.7545 39.3437L46.1777 19.5593C48.0519 16.3131 45.7092 12.2553 41.9608 12.2553H1.93111C1.15553 12.2553 0.672294 11.414 1.06309 10.7441Z" fill="#34A853"/>
</svg>
