<svg width="872" height="145" viewBox="0 0 872 145" fill="none" xmlns="http://www.w3.org/2000/svg">
<path d="M6.80248 79.1348L29.9753 39.14C30.4283 38.3582 31.2633 37.877 32.1668 37.877L60.8377 37.877C62.7945 37.877 64.0121 40.0014 63.0232 41.6899L48.6322 66.2592C47.6432 67.9477 48.8608 70.0721 50.8176 70.0721H68.0152C70.2717 70.0721 71.4017 72.8002 69.8062 74.3958L0 144.202L23.4803 86.4236C24.1571 84.7581 22.9316 82.9373 21.1338 82.9373H8.99399C7.04252 82.9373 5.82415 80.8233 6.80248 79.1348Z" fill="#2FD686"/>
<path d="M16.8155 23.2514L29.5692 1.26228C30.0223 0.481091 30.8571 0.000244141 31.7602 0.000244141H100.367C123.991 0.000244141 138.752 25.5797 126.931 46.0338L101.104 90.7208C100.652 91.5039 99.8158 91.9863 98.9114 91.9863H73.5106C71.5611 91.9863 70.3425 89.8761 71.3169 88.1875L95.9734 45.4615C100.695 37.2799 94.7902 27.055 85.3439 27.055H19.0065C17.0545 27.055 15.8362 24.9399 16.8155 23.2514Z" fill="#2FD686"/>
<path d="M857.887 52.9554H872V114.318H857.887V105.85C855.187 108.672 851.873 111.004 848.191 112.722C844.141 114.563 839.601 115.545 834.937 115.668C830.396 115.791 825.733 114.931 821.437 113.336C817.142 111.741 813.337 109.286 810.147 106.218C803.888 100.204 800.329 91.8592 800.451 83.6366C800.329 75.4141 803.888 67.0688 810.147 61.0553C813.337 58.1099 817.142 55.6554 821.437 53.9372C825.733 52.3418 830.396 51.6055 834.937 51.6055C839.601 51.7282 844.141 52.71 848.191 54.5509C851.873 56.269 855.187 58.7235 857.887 61.4235V52.9554ZM850.4 98.1182C854.941 94.6819 857.887 89.282 857.887 83.6366C857.887 77.9913 854.941 72.5914 850.4 69.2778C848.191 67.5597 845.614 66.2097 843.037 65.4734C840.337 64.737 837.637 64.3688 834.937 64.4916C829.537 64.737 824.383 66.7006 820.578 70.2596C816.774 73.6959 814.565 78.6049 814.565 83.6366C814.565 88.6684 816.774 93.5774 820.578 97.0136C824.383 100.573 829.537 102.536 834.937 102.782C837.637 102.904 840.337 102.536 843.037 101.8C845.614 101.064 848.191 99.8363 850.4 98.1182Z" fill="#2B332D"/>
<path d="M791.477 114.318H777.364V80.9369V78.9733C777.364 78.4824 777.241 77.8688 777.241 77.3779C777.118 76.1506 776.873 75.1688 776.627 74.0643C776.014 72.1007 775.032 70.1371 773.928 68.7871C772.823 67.3144 771.473 66.2099 769.878 65.4735C768.405 64.6145 766.687 64.1236 764.6 64.0009C762.391 63.7554 760.551 63.8781 758.587 64.369C756.623 64.8599 754.66 65.8417 752.819 67.3144C751.101 68.7871 749.628 70.9962 748.523 73.3279C747.542 75.6597 746.928 78.2369 746.805 80.9369C746.683 81.6732 746.56 82.5323 746.56 83.2686V114.318H732.447V52.9556H746.56V60.3191C748.155 58.1101 750.242 56.0237 752.819 54.551C756.378 52.4647 760.551 51.3602 764.6 51.1147C766.564 51.1147 768.65 51.2375 770.737 51.4829C772.823 51.8511 774.909 52.5874 776.873 53.4465C778.836 54.3056 780.555 55.5328 782.15 56.8828C783.745 58.2328 785.095 59.7055 786.2 61.3009C788.532 64.4917 789.759 67.8053 790.618 71.2416C790.986 72.9598 791.232 74.6779 791.354 76.2733C791.354 77.1324 791.477 77.8688 791.477 78.7278V80.9369V114.318Z" fill="#2B332D"/>
<path d="M719.423 88.9138H668.247C671.07 96.8909 679.783 102.782 690.092 102.782C697.087 102.782 703.592 100.082 707.764 95.7864L720.896 101.309C714.146 110.145 702.733 115.668 690.092 115.668C669.843 115.668 653.275 101.309 653.275 83.6366C653.275 65.9643 668.738 51.6055 687.76 51.6055C706.905 51.6055 722.369 65.9643 722.369 83.6366C722.369 85.4775 722.246 87.1957 721.878 88.9138H719.423ZM668.247 78.3595H707.396C704.942 70.3824 697.087 64.4916 687.76 64.4916C678.556 64.4916 670.702 70.3824 668.247 78.3595Z" fill="#2B332D"/>
<path d="M648.132 51.4829C649.359 51.7284 650.586 52.0965 651.813 52.4647L648.623 66.2099C648.132 65.9644 647.764 65.719 647.273 65.4735C645.8 64.6145 644.082 64.1236 641.995 64.0009C639.786 63.7554 637.946 63.8781 635.982 64.369C634.018 64.8599 632.055 65.719 630.214 67.3144C628.496 68.7871 627.023 70.9962 625.919 73.3279C624.937 75.6597 624.323 78.2369 624.2 80.9369C624.078 81.6732 623.955 82.5323 623.955 83.2686V114.318H609.842V52.9556H623.955V60.3191C625.55 58.1101 627.637 56.0237 630.337 54.551C633.773 52.4647 637.946 51.3602 641.995 51.1147C643.959 51.1147 646.045 51.2375 648.132 51.4829Z" fill="#2B332D"/>
<path d="M569.122 29.2695L603.117 115.054H588.021L579.799 94.3137H538.932L530.709 115.054H515.737L549.609 29.2695H569.122ZM544.086 81.4276H574.767L559.427 42.6465L544.086 81.4276Z" fill="#2B332D"/>
<path d="M471.156 42.4015C470.051 43.2606 467.965 44.856 467.965 51.7286V52.9558H484.287V65.8419H467.965V114.318H453.852V65.8419H441.702V52.9558H453.852V51.7286C453.852 43.0151 456.306 37.0016 461.829 32.7062C468.333 27.5518 476.433 27.1836 484.287 27.5518V40.4379C477.783 40.1924 473.733 40.4379 471.156 42.4015Z" fill="#2B332D"/>
<path d="M402.883 51.6055C422.028 51.6055 437.492 65.9643 437.492 83.6366C437.492 101.309 422.028 115.668 402.883 115.668C383.861 115.668 368.398 101.309 368.398 83.6366C368.398 65.9643 383.861 51.6055 402.883 51.6055ZM402.883 102.782C414.174 102.782 423.378 94.191 423.378 83.6366C423.378 73.0823 414.174 64.4916 402.883 64.4916C391.715 64.4916 382.511 73.0823 382.511 83.6366C382.511 94.191 391.715 102.782 402.883 102.782Z" fill="#2B332D"/>
<path d="M326.78 51.6055C345.925 51.6055 361.388 65.9643 361.388 83.6366C361.388 101.309 345.925 115.668 326.78 115.668C307.757 115.668 292.294 101.309 292.294 83.6366C292.294 65.9643 307.757 51.6055 326.78 51.6055ZM326.78 102.782C338.07 102.782 347.275 94.191 347.275 83.6366C347.275 73.0823 338.07 64.4916 326.78 64.4916C315.612 64.4916 306.407 73.0823 306.407 83.6366C306.407 94.191 315.612 102.782 326.78 102.782Z" fill="#2B332D"/>
<path d="M287.148 51.4829C288.376 51.7284 289.603 52.0965 290.83 52.4647L287.639 66.2099C287.148 65.9644 286.78 65.719 286.289 65.4735C284.817 64.6145 283.098 64.1236 281.012 64.0009C278.803 63.7554 276.962 63.8781 274.999 64.369C273.035 64.8599 271.071 65.719 269.23 67.3144C267.512 68.7871 266.04 70.9962 264.935 73.3279C263.953 75.6597 263.34 78.2369 263.217 80.9369C263.094 81.6732 262.972 82.5323 262.972 83.2686V114.318H248.858V52.9556H262.972V60.3191C264.567 58.1101 266.653 56.0237 269.353 54.551C272.789 52.4647 276.962 51.3602 281.012 51.1147C282.976 51.1147 285.062 51.2375 287.148 51.4829Z" fill="#2B332D"/>
<path d="M237.836 44.3647C239.554 47.6783 240.29 51.2373 240.29 55.0417C240.29 58.8462 239.554 62.4052 237.836 65.5961C236.24 68.7869 233.786 71.6096 230.718 73.9414C227.772 76.1504 224.213 77.8686 220.164 79.0958C216.236 80.2003 211.818 80.814 207.032 80.814H186.169V115.177H172.055V29.2695H207.032C211.818 29.2695 216.236 29.7604 220.164 30.9877C224.213 32.0922 227.772 33.8103 230.718 36.0194C233.786 38.3512 236.24 41.1738 237.836 44.3647ZM224.95 60.1962C225.809 58.6008 226.177 56.8826 226.177 55.0417C226.177 53.0781 225.809 51.36 224.95 49.7646C224.213 48.2919 223.232 47.0646 221.759 45.9601C220.164 44.8556 218.2 43.8738 215.745 43.1374C213.291 42.5238 210.346 42.1556 207.032 42.1556H186.169V67.9278H207.032C210.346 67.9278 213.291 67.5597 215.745 66.8233C218.2 66.2097 220.164 65.2279 221.636 64.0007C223.109 62.8961 224.213 61.6689 224.95 60.1962Z" fill="#2B332D"/>
</svg>
