<svg width="193" height="35" viewBox="0 0 193 35" fill="none" xmlns="http://www.w3.org/2000/svg">
<path d="M190.258 10.63H193V27.3205H190.258V25.6753C189.733 26.2237 189.09 26.6768 188.374 27.0106C187.587 27.3682 186.705 27.559 185.799 27.5828C184.917 27.6067 184.011 27.4636 183.176 27.1298C182.342 26.8198 181.603 26.3429 180.983 25.7469C179.767 24.5785 179.075 22.9572 179.099 21.3596C179.075 19.7621 179.767 18.1407 180.983 16.9724C181.603 16.4002 182.342 15.9233 183.176 15.5895C184.011 15.2795 184.917 15.1364 185.799 15.1364C186.705 15.1603 187.587 15.351 188.374 15.7087C189.09 16.0425 189.733 16.5194 190.258 17.0439V10.63ZM188.803 24.1732C189.686 23.5056 190.258 22.4564 190.258 21.3596C190.258 20.2628 189.686 19.2137 188.803 18.5699C188.374 18.2361 187.874 17.9738 187.373 17.8308C186.848 17.6877 186.324 17.6162 185.799 17.64C184.75 17.6877 183.749 18.0692 183.009 18.7607C182.27 19.4283 181.841 20.382 181.841 21.3596C181.841 22.3372 182.27 23.291 183.009 23.9586C183.749 24.6501 184.75 25.0315 185.799 25.0792C186.324 25.1031 186.848 25.0315 187.373 24.8885C187.874 24.7454 188.374 24.507 188.803 24.1732Z" fill="#010F0A"/>
<path d="M174.399 15.3987H177.141V27.3205H174.399V25.8899C174.09 26.3191 173.66 26.7244 173.16 27.0106C172.492 27.4159 171.657 27.6544 170.894 27.6782C170.513 27.702 170.108 27.6782 169.702 27.6067C169.297 27.5351 168.892 27.3921 168.51 27.2252C168.129 27.0583 167.771 26.8198 167.461 26.5814C167.151 26.3191 166.889 26.0091 166.674 25.6992C166.245 25.0792 165.983 24.4355 165.84 23.7678C165.768 23.434 165.72 23.1241 165.697 22.7902C165.673 22.6233 165.673 22.4803 165.673 22.3134V15.3987H168.415V22.2657C168.415 22.3611 168.415 22.4803 168.439 22.5995C168.462 22.8141 168.486 23.0287 168.558 23.2194C168.653 23.6009 168.844 23.9824 169.082 24.2447C169.297 24.5308 169.559 24.7454 169.845 24.8885C170.155 25.0554 170.489 25.1508 170.894 25.1746C171.3 25.2223 171.681 25.2223 172.063 25.1031C172.444 25.0077 172.826 24.8408 173.16 24.5308C173.517 24.2447 173.803 23.8155 173.994 23.3625C174.209 22.9095 174.304 22.4326 174.352 21.8842C174.376 21.7411 174.376 21.5981 174.399 21.4312V15.3987Z" fill="#010F0A"/>
<path d="M157.205 15.1364C160.925 15.1364 163.929 17.9261 163.929 21.3596C163.929 24.7931 160.925 27.5828 157.205 27.5828C153.51 27.5828 150.505 24.7931 150.505 21.3596C150.505 17.9261 153.51 15.1364 157.205 15.1364ZM157.205 25.0792C159.399 25.0792 161.187 23.4102 161.187 21.3596C161.187 19.3091 159.399 17.64 157.205 17.64C155.036 17.64 153.247 19.3091 153.247 21.3596C153.247 23.4102 155.036 25.0792 157.205 25.0792Z" fill="#010F0A"/>
<path d="M148.581 27.3205H145.839V10.63H148.581V27.3205Z" fill="#010F0A"/>
<path d="M132.941 23.3863C135.516 25.723 139.712 25.723 142.287 23.3863L144.243 25.1508C142.407 26.796 139.998 27.6305 137.614 27.6305C135.206 27.6305 132.821 26.8198 130.985 25.1508C127.337 21.8365 127.337 16.424 130.985 13.1097C134.634 9.79546 140.571 9.79546 144.243 13.1097L142.287 14.8742C139.712 12.5375 135.516 12.5375 132.941 14.8742C130.365 17.2347 130.365 21.0258 132.941 23.3863Z" fill="#010F0A"/>
<path d="M118.155 13.3482C117.941 13.5151 117.535 13.825 117.535 15.1603V15.3987H120.706V17.9023H117.535V27.3205H114.793V17.9023H112.433V15.3987H114.793V15.1603C114.793 13.4674 115.27 12.299 116.343 11.4645C117.607 10.4631 119.18 10.3916 120.706 10.4631V12.9667C119.443 12.919 118.656 12.9667 118.155 13.3482Z" fill="#010F0A"/>
<path d="M104.891 15.1364C108.61 15.1364 111.615 17.9261 111.615 21.3596C111.615 24.7931 108.61 27.5828 104.891 27.5828C101.195 27.5828 98.1908 24.7931 98.1908 21.3596C98.1908 17.9261 101.195 15.1364 104.891 15.1364ZM104.891 25.0792C107.084 25.0792 108.873 23.4102 108.873 21.3596C108.873 19.3091 107.084 17.64 104.891 17.64C102.721 17.64 100.933 19.3091 100.933 21.3596C100.933 23.4102 102.721 25.0792 104.891 25.0792Z" fill="#010F0A"/>
<path d="M90.105 15.1364C93.8246 15.1364 96.8289 17.9261 96.8289 21.3596C96.8289 24.7931 93.8246 27.5828 90.105 27.5828C86.4092 27.5828 83.4049 24.7931 83.4049 21.3596C83.4049 17.9261 86.4092 15.1364 90.105 15.1364ZM90.105 25.0792C92.2986 25.0792 94.0869 23.4102 94.0869 21.3596C94.0869 19.3091 92.2986 17.64 90.105 17.64C87.9352 17.64 86.147 19.3091 86.147 21.3596C86.147 23.4102 87.9352 25.0792 90.105 25.0792Z" fill="#010F0A"/>
<path d="M82.4052 15.1126C82.6436 15.1603 82.8821 15.2318 83.1205 15.3033L82.5006 17.9738C82.4052 17.9261 82.3337 17.8785 82.2383 17.8308C81.9522 17.6639 81.6183 17.5685 81.213 17.5446C80.7838 17.497 80.4262 17.5208 80.0447 17.6162C79.6632 17.7116 79.2817 17.8785 78.924 18.1884C78.5902 18.4745 78.3041 18.9037 78.0895 19.3568C77.8987 19.8098 77.7795 20.3105 77.7557 20.8351C77.7318 20.9781 77.708 21.145 77.708 21.2881V27.3205H74.966V15.3987H77.708V16.8293C78.018 16.4002 78.4233 15.9948 78.9479 15.7087C79.6155 15.3033 80.4262 15.0887 81.213 15.0411C81.5945 15.0411 81.9998 15.0649 82.4052 15.1126Z" fill="#010F0A"/>
<path d="M72.8245 13.7297C73.1583 14.3734 73.3014 15.0649 73.3014 15.8041C73.3014 16.5432 73.1583 17.2347 72.8245 17.8546C72.5145 18.4745 72.0377 19.023 71.4416 19.476C70.8693 19.9052 70.1779 20.239 69.391 20.4774C68.628 20.692 67.7697 20.8112 66.8398 20.8112H62.7863V27.4874H60.0443V10.7969H66.8398C67.7697 10.7969 68.628 10.8923 69.391 11.1307C70.1779 11.3453 70.8693 11.6791 71.4416 12.1083C72.0377 12.5613 72.5145 13.1097 72.8245 13.7297ZM70.3209 16.8055C70.4878 16.4955 70.5594 16.1617 70.5594 15.8041C70.5594 15.4226 70.4878 15.0887 70.3209 14.7788C70.1779 14.4927 69.9871 14.2542 69.701 14.0396C69.391 13.825 69.0095 13.6343 68.5326 13.4912C68.0558 13.372 67.4835 13.3005 66.8398 13.3005H62.7863V18.3076H66.8398C67.4835 18.3076 68.0558 18.2361 68.5326 18.093C69.0095 17.9738 69.391 17.7831 69.6771 17.5446C69.9633 17.3301 70.1779 17.0916 70.3209 16.8055Z" fill="#010F0A"/>
<path fill-rule="evenodd" clip-rule="evenodd" d="M13.1431 8.4137C15.4766 4.94452 19.3129 2.57574 23.7174 2.23773V15.1451H10.8029C10.9945 12.6639 11.8303 10.3654 13.1431 8.4137ZM12.2292 32.5795L23.7174 19.4016V32.5795H18.3622H12.2292ZM35.8101 32.5795H25.9134V26.9943L35.8101 32.5795ZM40.266 32.5725L26.8299 24.9899L40.3625 17.3528C44.3728 17.5731 47.5568 20.8949 47.5568 24.9603C47.5568 29.0582 44.3216 32.4006 40.266 32.5725ZM38.844 15.6881L25.9134 22.9854V2.23893C32.9723 2.7886 38.5669 8.55602 38.844 15.6881ZM41.0181 15.2038C40.4822 6.7173 33.4294 0 24.8077 0C19.1881 0 14.2356 2.85472 11.3209 7.18802C9.75882 9.51031 8.78054 12.2588 8.59633 15.22C5.70981 15.5777 3.21238 17.189 1.66579 19.4883C0.613882 21.0521 0 22.9362 0 24.9603C0 30.3811 4.39442 34.7755 9.81522 34.7755H18.3622H39.9377H40.0974V34.7742C45.4446 34.6889 49.7529 30.3277 49.7529 24.9603C49.7529 19.9046 45.9305 15.7417 41.0181 15.2038ZM9.81522 17.3411C7.18074 17.3411 4.85792 18.6773 3.48798 20.7139C2.67213 21.9269 2.19605 23.3863 2.19605 24.9603C2.19605 29.0049 5.34764 32.3135 9.32907 32.5642L22.6003 17.3411H9.81522Z" fill="url(#paint0_linear_1382_3949)"/>
<path fill-rule="evenodd" clip-rule="evenodd" d="M13.1431 8.4137C15.4766 4.94452 19.3129 2.57574 23.7174 2.23773V15.1451H10.8029C10.9945 12.6639 11.8303 10.3654 13.1431 8.4137ZM12.2292 32.5795L23.7174 19.4016V32.5795H18.3622H12.2292ZM35.8101 32.5795H25.9134V26.9943L35.8101 32.5795ZM40.266 32.5725L26.8299 24.9899L40.3625 17.3528C44.3728 17.5731 47.5568 20.8949 47.5568 24.9603C47.5568 29.0582 44.3216 32.4006 40.266 32.5725ZM38.844 15.6881L25.9134 22.9854V2.23893C32.9723 2.7886 38.5669 8.55602 38.844 15.6881ZM41.0181 15.2038C40.4822 6.7173 33.4294 0 24.8077 0C19.1881 0 14.2356 2.85472 11.3209 7.18802C9.75882 9.51031 8.78054 12.2588 8.59633 15.22C5.70981 15.5777 3.21238 17.189 1.66579 19.4883C0.613882 21.0521 0 22.9362 0 24.9603C0 30.3811 4.39442 34.7755 9.81522 34.7755H18.3622H39.9377H40.0974V34.7742C45.4446 34.6889 49.7529 30.3277 49.7529 24.9603C49.7529 19.9046 45.9305 15.7417 41.0181 15.2038ZM9.81522 17.3411C7.18074 17.3411 4.85792 18.6773 3.48798 20.7139C2.67213 21.9269 2.19605 23.3863 2.19605 24.9603C2.19605 29.0049 5.34764 32.3135 9.32907 32.5642L22.6003 17.3411H9.81522Z" fill="#010F0A"/>
<path fill-rule="evenodd" clip-rule="evenodd" d="M13.1431 8.4137C15.4766 4.94452 19.3129 2.57574 23.7174 2.23773V15.1451H10.8029C10.9945 12.6639 11.8303 10.3654 13.1431 8.4137ZM12.2292 32.5795L23.7174 19.4016V32.5795H18.3622H12.2292ZM35.8101 32.5795H25.9134V26.9943L35.8101 32.5795ZM40.266 32.5725L26.8299 24.9899L40.3625 17.3528C44.3728 17.5731 47.5568 20.8949 47.5568 24.9603C47.5568 29.0582 44.3216 32.4006 40.266 32.5725ZM38.844 15.6881L25.9134 22.9854V2.23893C32.9723 2.7886 38.5669 8.55602 38.844 15.6881ZM41.0181 15.2038C40.4822 6.7173 33.4294 0 24.8077 0C19.1881 0 14.2356 2.85472 11.3209 7.18802C9.75882 9.51031 8.78054 12.2588 8.59633 15.22C5.70981 15.5777 3.21238 17.189 1.66579 19.4883C0.613882 21.0521 0 22.9362 0 24.9603C0 30.3811 4.39442 34.7755 9.81522 34.7755H18.3622H39.9377H40.0974V34.7742C45.4446 34.6889 49.7529 30.3277 49.7529 24.9603C49.7529 19.9046 45.9305 15.7417 41.0181 15.2038ZM9.81522 17.3411C7.18074 17.3411 4.85792 18.6773 3.48798 20.7139C2.67213 21.9269 2.19605 23.3863 2.19605 24.9603C2.19605 29.0049 5.34764 32.3135 9.32907 32.5642L22.6003 17.3411H9.81522Z" fill="#34A853"/>
<defs>
<linearGradient id="paint0_linear_1382_3949" x1="1.39698e-06" y1="30.332" x2="36.3765" y2="28.1021" gradientUnits="userSpaceOnUse">
<stop stop-color="#0CFFF0"/>
<stop offset="1" stop-color="#0CFFA7"/>
</linearGradient>
</defs>
</svg>
