<svg xmlns="http://www.w3.org/2000/svg" width="28" height="28" viewBox="0 0 28 28" fill="none">
<g opacity="0.5">
<path d="M14 7.39698C14 8.30698 13.0317 9.12364 11.5383 9.62531C10.357 10.0152 9.11881 10.2045 7.875 10.1853C6.63119 10.2045 5.39295 10.0152 4.21167 9.62531C2.71833 9.12364 1.75 8.30698 1.75 7.39698C1.75 5.85698 4.49167 4.60864 7.875 4.60864C11.2583 4.60864 14 5.85698 14 7.39698Z" stroke="white" stroke-width="1.25" stroke-miterlimit="10" stroke-linecap="square"/>
<path d="M14 7.39697V11.8536C14 12.7636 13.0317 13.5803 11.5383 14.082C10.3557 14.4662 9.11841 14.6553 7.875 14.642C6.63159 14.6553 5.3943 14.4662 4.21167 14.082C2.71833 13.5803 1.75 12.7636 1.75 11.8536V7.39697C1.75 8.30697 2.71833 9.12364 4.21167 9.62531C5.39295 10.0152 6.63119 10.2045 7.875 10.1853C9.11881 10.2045 10.357 10.0152 11.5383 9.62531C13.0317 9.12364 14 8.30697 14 7.39697Z" stroke="white" stroke-width="1.25" stroke-miterlimit="10" stroke-linecap="square"/>
<path d="M14 11.8536V16.3103C14 17.2203 13.0317 18.037 11.5383 18.5386C10.355 18.9185 9.11774 19.1037 7.875 19.087C6.63226 19.1037 5.39504 18.9185 4.21167 18.5386C2.71833 18.0836 1.75 17.2203 1.75 16.3103V11.8536C1.75 12.7636 2.71833 13.5803 4.21167 14.082C5.3943 14.4662 6.63159 14.6553 7.875 14.642C9.11841 14.6553 10.3557 14.4662 11.5383 14.082C13.0317 13.5803 14 12.7636 14 11.8536Z" stroke="white" stroke-width="1.25" stroke-miterlimit="10" stroke-linecap="square"/>
<path d="M14 16.3103V20.767C14 22.2953 11.2583 23.5436 7.875 23.5436C4.49167 23.5436 1.75 22.2953 1.75 20.767V16.3103C1.75 17.2203 2.71833 18.037 4.21167 18.5386C5.39504 18.9185 6.63226 19.1037 7.875 19.087C9.11774 19.1037 10.355 18.9185 11.5383 18.5386C13.0317 18.0836 14 17.2203 14 16.3103Z" stroke="white" stroke-width="1.25" stroke-miterlimit="10" stroke-linecap="square"/>
<path d="M26.25 16.3103V20.767C26.25 22.2953 23.5083 23.5436 20.125 23.5436C16.7417 23.5436 14 22.2953 14 20.767V16.3103C14 17.2203 14.9683 18.037 16.4617 18.5386C17.645 18.9185 18.8823 19.1037 20.125 19.087C21.3677 19.1037 22.605 18.9185 23.7883 18.5386C25.2817 18.0836 26.25 17.2203 26.25 16.3103Z" stroke="white" stroke-width="1.25" stroke-miterlimit="10" stroke-linecap="square"/>
<path d="M26.25 9.62528C26.25 10.8367 25.8908 12.0209 25.2178 13.0282C24.5447 14.0354 23.5881 14.8205 22.4689 15.284C21.3497 15.7476 20.1182 15.8689 18.9301 15.6326C17.7419 15.3963 16.6506 14.8129 15.794 13.9563C14.9374 13.0997 14.354 12.0083 14.1177 10.8202C13.8814 9.63208 14.0027 8.40054 14.4662 7.28135C14.9298 6.16215 15.7149 5.20556 16.7221 4.53253C17.7294 3.85951 18.9136 3.50028 20.125 3.50028C20.9315 3.49249 21.7315 3.6456 22.4781 3.95065C23.2248 4.2557 23.9031 4.70657 24.4734 5.27689C25.0437 5.8472 25.4946 6.52552 25.7996 7.27216C26.1047 8.0188 26.2578 8.81877 26.25 9.62528Z" stroke="white" stroke-width="1.25" stroke-miterlimit="10" stroke-linecap="square"/>
<path d="M26.25 16.3103C26.25 17.2203 25.2817 18.037 23.7883 18.5387C22.605 18.9185 21.3677 19.1037 20.125 19.087C18.8823 19.1037 17.645 18.9185 16.4617 18.5387C14.9683 18.0837 14 17.2203 14 16.3103C14 15.4003 14.805 14.7237 16.0767 14.2103C17.1917 15.2025 18.6324 15.7507 20.125 15.7507C21.6176 15.7507 23.0583 15.2025 24.1733 14.2103C25.445 14.7237 26.25 15.4703 26.25 16.3103Z" stroke="white" stroke-width="1.25" stroke-miterlimit="10" stroke-linecap="square"/>
</g>
</svg>