<svg xmlns="http://www.w3.org/2000/svg" width="28" height="28" viewBox="0 0 28 28" fill="none">
<g opacity="0.5">
<path d="M19.25 12.25H16.625C16.3929 12.25 16.1704 12.1578 16.0063 11.9937C15.8422 11.8296 15.75 11.6071 15.75 11.375C15.75 11.1429 15.8422 10.9204 16.0063 10.7563C16.1704 10.5922 16.3929 10.5 16.625 10.5H19.25C19.4821 10.5 19.7046 10.5922 19.8687 10.7563C20.0328 10.9204 20.125 11.1429 20.125 11.375C20.125 11.6071 20.0328 11.8296 19.8687 11.9937C19.7046 12.1578 19.4821 12.25 19.25 12.25ZM11.375 10.5H10.5V9.625C10.5 9.39294 10.4078 9.17038 10.2437 9.00628C10.0796 8.84219 9.85707 8.75 9.62501 8.75C9.39294 8.75 9.17038 8.84219 9.00629 9.00628C8.8422 9.17038 8.75001 9.39294 8.75001 9.625V10.5H7.87501C7.64294 10.5 7.42038 10.5922 7.25629 10.7563C7.0922 10.9204 7.00001 11.1429 7.00001 11.375C7.00001 11.6071 7.0922 11.8296 7.25629 11.9937C7.42038 12.1578 7.64294 12.25 7.87501 12.25H8.75001V13.125C8.75001 13.3571 8.8422 13.5796 9.00629 13.7437C9.17038 13.9078 9.39294 14 9.62501 14C9.85707 14 10.0796 13.9078 10.2437 13.7437C10.4078 13.5796 10.5 13.3571 10.5 13.125V12.25H11.375C11.6071 12.25 11.8296 12.1578 11.9937 11.9937C12.1578 11.8296 12.25 11.6071 12.25 11.375C12.25 11.1429 12.1578 10.9204 11.9937 10.7563C11.8296 10.5922 11.6071 10.5 11.375 10.5ZM26.4119 21.9461C26.0821 22.417 25.6532 22.81 25.1554 23.0974C24.6575 23.3849 24.1027 23.5598 23.53 23.61C22.9573 23.6601 22.3806 23.5842 21.8403 23.3877C21.3001 23.1911 20.8094 22.8786 20.4028 22.4722C20.3897 22.4591 20.3766 22.4459 20.3645 22.4317L16.0213 17.5H11.9744L7.63548 22.4317L7.5972 22.4722C6.85804 23.2097 5.8567 23.6243 4.81251 23.625C4.23768 23.6248 3.66986 23.4987 3.14895 23.2556C2.62804 23.0126 2.16667 22.6584 1.79724 22.218C1.42782 21.7776 1.15931 21.2616 1.01057 20.7064C0.861824 20.1511 0.836461 19.57 0.936259 19.0039C0.935732 18.9988 0.935732 18.9937 0.936259 18.9886L2.72673 9.79125C2.9932 8.27429 3.78576 6.89978 4.96515 5.90922C6.14454 4.91866 7.63529 4.37544 9.17548 4.375H18.8125C20.348 4.37745 21.8342 4.91757 23.013 5.90157C24.1919 6.88558 24.9888 8.25134 25.2656 9.76172C25.2656 9.76828 25.2656 9.77484 25.2656 9.78141L27.0561 18.9875C27.0566 18.9926 27.0566 18.9977 27.0561 19.0028C27.1488 19.5116 27.1395 20.0338 27.029 20.539C26.9184 21.0442 26.7086 21.5225 26.4119 21.9461ZM18.8125 15.75C20.0889 15.75 21.3129 15.243 22.2155 14.3405C23.118 13.4379 23.625 12.2139 23.625 10.9375C23.625 9.66115 23.118 8.43707 22.2155 7.53455C21.3129 6.63203 20.0889 6.125 18.8125 6.125H9.17548C8.04558 6.12601 6.95223 6.52546 6.08779 7.25306C5.22335 7.98067 4.64319 8.98982 4.44938 10.103V10.1172L2.65782 19.3145C2.57863 19.7705 2.6461 20.2398 2.85052 20.6551C3.05493 21.0703 3.38577 21.4099 3.79545 21.6252C4.20512 21.8405 4.67252 21.9203 5.13043 21.8532C5.58833 21.786 6.01314 21.5754 6.34376 21.2516L10.9288 16.0464C11.0109 15.9533 11.1118 15.8787 11.225 15.8276C11.3381 15.7765 11.4609 15.75 11.585 15.75H18.8125ZM25.3422 19.3145L24.3863 14.3927C23.7983 15.342 22.9779 16.1257 22.0025 16.6694C21.0272 17.2132 19.9292 17.4991 18.8125 17.5H18.3531L21.6563 21.2527C21.9053 21.4949 22.2082 21.6746 22.5402 21.7771C22.8722 21.8796 23.2237 21.9019 23.5659 21.8422C24.1361 21.7416 24.6431 21.419 24.9759 20.9452C25.3086 20.4714 25.4399 19.885 25.3411 19.3145H25.3422Z" fill="white"/>
</g>
</svg>